  0
SECTION
  2
HEADER
  9
$ACADVER
  1
AC1027
  9
$ACADMAINTVER
 70
   125
  9
$DWGCODEPAGE
  3
ANSI_1252
  9
$REQUIREDVERSIONS
160
                 0
  9
$INSBASE
 10
0.0
 20
0.0
 30
0.0
  9
$EXTMIN
 10
1.000000000000000E+20
 20
1.000000000000000E+20
 30
1.000000000000000E+20
  9
$EXTMAX
 10
-1.000000000000000E+20
 20
-1.000000000000000E+20
 30
-1.000000000000000E+20
  9
$LIMMIN
 10
0.0
 20
0.0
  9
$LIMMAX
 10
12.0
 20
9.0
  9
$ORTHOMODE
 70
     0
  9
$REGENMODE
 70
     1
  9
$FILLMODE
 70
     1
  9
$QTEXTMODE
 70
     0
  9
$MIRRTEXT
 70
     0
  9
$LTSCALE
 40
1.0
  9
$ATTMODE
 70
     1
  9
$TEXTSIZE
 40
0.2
  9
$TRACEWID
 40
0.05
  9
$TEXTSTYLE
  7
Standard
  9
$CLAYER
  8
0
  9
$CELTYPE
  6
ByLayer
  9
$CECOLOR
 62
   256
  9
$CELTSCALE
 40
1.0
  9
$DISPSILH
 70
     0
  9
$DIMSCALE
 40
1.0
  9
$DIMASZ
 40
0.18
  9
$DIMEXO
 40
0.0625
  9
$DIMDLI
 40
0.38
  9
$DIMRND
 40
0.0
  9
$DIMDLE
 40
0.0
  9
$DIMEXE
 40
0.18
  9
$DIMTP
 40
0.0
  9
$DIMTM
 40
0.0
  9
$DIMTXT
 40
0.18
  9
$DIMCEN
 40
0.09
  9
$DIMTSZ
 40
0.0
  9
$DIMTOL
 70
     0
  9
$DIMLIM
 70
     0
  9
$DIMTIH
 70
     1
  9
$DIMTOH
 70
     1
  9
$DIMSE1
 70
     0
  9
$DIMSE2
 70
     0
  9
$DIMTAD
 70
     0
  9
$DIMZIN
 70
     0
  9
$DIMBLK
  1

  9
$DIMASO
 70
     1
  9
$DIMSHO
 70
     1
  9
$DIMPOST
  1

  9
$DIMAPOST
  1

  9
$DIMALT
 70
     0
  9
$DIMALTD
 70
     2
  9
$DIMALTF
 40
25.4
  9
$DIMLFAC
 40
1.0
  9
$DIMTOFL
 70
     0
  9
$DIMTVP
 40
0.0
  9
$DIMTIX
 70
     0
  9
$DIMSOXD
 70
     0
  9
$DIMSAH
 70
     0
  9
$DIMBLK1
  1

  9
$DIMBLK2
  1

  9
$DIMSTYLE
  2
Standard
  9
$DIMCLRD
 70
     0
  9
$DIMCLRE
 70
     0
  9
$DIMCLRT
 70
     0
  9
$DIMTFAC
 40
1.0
  9
$DIMGAP
 40
0.09
  9
$DIMJUST
 70
     0
  9
$DIMSD1
 70
     0
  9
$DIMSD2
 70
     0
  9
$DIMTOLJ
 70
     1
  9
$DIMTZIN
 70
     0
  9
$DIMALTZ
 70
     0
  9
$DIMALTTZ
 70
     0
  9
$DIMUPT
 70
     0
  9
$DIMDEC
 70
     4
  9
$DIMTDEC
 70
     4
  9
$DIMALTU
 70
     2
  9
$DIMALTTD
 70
     2
  9
$DIMTXSTY
  7
Standard
  9
$DIMAUNIT
 70
     0
  9
$DIMADEC
 70
     0
  9
$DIMALTRND
 40
0.0
  9
$DIMAZIN
 70
     0
  9
$DIMDSEP
 70
    46
  9
$DIMATFIT
 70
     3
  9
$DIMFRAC
 70
     0
  9
$DIMLDRBLK
  1

  9
$DIMLUNIT
 70
     2
  9
$DIMLWD
 70
    -2
  9
$DIMLWE
 70
    -2
  9
$DIMTMOVE
 70
     0
  9
$DIMFXL
 40
1.0
  9
$DIMFXLON
 70
     0
  9
$DIMJOGANG
 40
0.7853981633974483
  9
$DIMTFILL
 70
     0
  9
$DIMTFILLCLR
 70
     0
  9
$DIMARCSYM
 70
     0
  9
$DIMLTYPE
  6

  9
$DIMLTEX1
  6

  9
$DIMLTEX2
  6

  9
$DIMTXTDIRECTION
 70
     0
  9
$LUNITS
 70
     2
  9
$LUPREC
 70
     4
  9
$SKETCHINC
 40
0.1
  9
$FILLETRAD
 40
0.0
  9
$AUNITS
 70
     0
  9
$AUPREC
 70
     0
  9
$MENU
  1
.
  9
$ELEVATION
 40
0.0
  9
$PELEVATION
 40
0.0
  9
$THICKNESS
 40
0.0
  9
$LIMCHECK
 70
     0
  9
$CHAMFERA
 40
0.0
  9
$CHAMFERB
 40
0.0
  9
$CHAMFERC
 40
0.0
  9
$CHAMFERD
 40
0.0
  9
$SKPOLY
 70
     0
  9
$TDCREATE
 40
2459891.291087963
  9
$TDUCREATE
 40
2459891.291087963
  9
$TDUPDATE
 40
2459891.291087963
  9
$TDUUPDATE
 40
2459891.291087963
  9
$TDINDWG
 40
0.0000000000
  9
$TDUSRTIMER
 40
0.0000000000
  9
$USRTIMER
 70
     1
  9
$ANGBASE
 50
0.0
  9
$ANGDIR
 70
     0
  9
$PDMODE
 70
     0
  9
$PDSIZE
 40
0.0
  9
$PLINEWID
 40
0.0
  9
$SPLFRAME
 70
     0
  9
$SPLINETYPE
 70
     6
  9
$SPLINESEGS
 70
     8
  9
$HANDSEED
  5
F7
  9
$SURFTAB1
 70
     6
  9
$SURFTAB2
 70
     6
  9
$SURFTYPE
 70
     6
  9
$SURFU
 70
     6
  9
$SURFV
 70
     6
  9
$UCSBASE
  2

  9
$UCSNAME
  2

  9
$UCSORG
 10
0.0
 20
0.0
 30
0.0
  9
$UCSXDIR
 10
1.0
 20
0.0
 30
0.0
  9
$UCSYDIR
 10
0.0
 20
1.0
 30
0.0
  9
$UCSORTHOREF
  2

  9
$UCSORTHOVIEW
 70
     0
  9
$UCSORGTOP
 10
0.0
 20
0.0
 30
0.0
  9
$UCSORGBOTTOM
 10
0.0
 20
0.0
 30
0.0
  9
$UCSORGLEFT
 10
0.0
 20
0.0
 30
0.0
  9
$UCSORGRIGHT
 10
0.0
 20
0.0
 30
0.0
  9
$UCSORGFRONT
 10
0.0
 20
0.0
 30
0.0
  9
$UCSORGBACK
 10
0.0
 20
0.0
 30
0.0
  9
$PUCSBASE
  2

  9
$PUCSNAME
  2

  9
$PUCSORG
 10
0.0
 20
0.0
 30
0.0
  9
$PUCSXDIR
 10
1.0
 20
0.0
 30
0.0
  9
$PUCSYDIR
 10
0.0
 20
1.0
 30
0.0
  9
$PUCSORTHOREF
  2

  9
$PUCSORTHOVIEW
 70
     0
  9
$PUCSORGTOP
 10
0.0
 20
0.0
 30
0.0
  9
$PUCSORGBOTTOM
 10
0.0
 20
0.0
 30
0.0
  9
$PUCSORGLEFT
 10
0.0
 20
0.0
 30
0.0
  9
$PUCSORGRIGHT
 10
0.0
 20
0.0
 30
0.0
  9
$PUCSORGFRONT
 10
0.0
 20
0.0
 30
0.0
  9
$PUCSORGBACK
 10
0.0
 20
0.0
 30
0.0
  9
$USERI1
 70
     0
  9
$USERI2
 70
     0
  9
$USERI3
 70
     0
  9
$USERI4
 70
     0
  9
$USERI5
 70
     0
  9
$USERR1
 40
0.0
  9
$USERR2
 40
0.0
  9
$USERR3
 40
0.0
  9
$USERR4
 40
0.0
  9
$USERR5
 40
0.0
  9
$WORLDVIEW
 70
     1
  9
$SHADEDGE
 70
     3
  9
$SHADEDIF
 70
    70
  9
$TILEMODE
 70
     1
  9
$MAXACTVP
 70
    64
  9
$PINSBASE
 10
0.0
 20
0.0
 30
0.0
  9
$PLIMCHECK
 70
     0
  9
$PEXTMIN
 10
1.000000000000000E+20
 20
1.000000000000000E+20
 30
1.000000000000000E+20
  9
$PEXTMAX
 10
-1.000000000000000E+20
 20
-1.000000000000000E+20
 30
-1.000000000000000E+20
  9
$PLIMMIN
 10
0.0
 20
0.0
  9
$PLIMMAX
 10
12.0
 20
9.0
  9
$UNITMODE
 70
     0
  9
$VISRETAIN
 70
     1
  9
$PLINEGEN
 70
     0
  9
$PSLTSCALE
 70
     1
  9
$TREEDEPTH
 70
  3020
  9
$CMLSTYLE
  2
Standard
  9
$CMLJUST
 70
     0
  9
$CMLSCALE
 40
1.0
  9
$PROXYGRAPHICS
 70
     1
  9
$MEASUREMENT
 70
     0
  9
$CELWEIGHT
370
    -1
  9
$ENDCAPS
280
     0
  9
$JOINSTYLE
280
     0
  9
$LWDISPLAY
290
     0
  9
$INSUNITS
 70
     5
  9
$HYPERLINKBASE
  1

  9
$STYLESHEET
  1

  9
$XEDIT
290
     1
  9
$CEPSNTYPE
380
     0
  9
$PSTYLEMODE
290
     1
  9
$FINGERPRINTGUID
  2
{07F12F06-FE23-824E-AD2C-F8A13B280909}
  9
$VERSIONGUID
  2
{3D598895-A407-514A-9F98-7C33DDA09CD2}
  9
$EXTNAMES
290
     1
  9
$PSVPSCALE
 40
0.0
  9
$OLESTARTUP
290
     0
  9
$SORTENTS
280
   127
  9
$INDEXCTL
280
     0
  9
$HIDETEXT
280
     1
  9
$XCLIPFRAME
280
     2
  9
$HALOGAP
280
     0
  9
$OBSCOLOR
 70
   257
  9
$OBSLTYPE
280
     0
  9
$INTERSECTIONDISPLAY
280
     0
  9
$INTERSECTIONCOLOR
 70
   257
  9
$DIMASSOC
280
     2
  9
$PROJECTNAME
  1

  9
$CAMERADISPLAY
290
     0
  9
$LENSLENGTH
 40
50.0
  9
$CAMERAHEIGHT
 40
0.0
  9
$STEPSPERSEC
 40
2.0
  9
$STEPSIZE
 40
6.0
  9
$3DDWFPREC
 40
2.0
  9
$PSOLWIDTH
 40
0.25
  9
$PSOLHEIGHT
 40
4.0
  9
$LOFTANG1
 40
1.570796326794896
  9
$LOFTANG2
 40
1.570796326794896
  9
$LOFTMAG1
 40
0.0
  9
$LOFTMAG2
 40
0.0
  9
$LOFTPARAM
 70
     7
  9
$LOFTNORMALS
280
     1
  9
$LATITUDE
 40
37.795
  9
$LONGITUDE
 40
-122.394
  9
$NORTHDIRECTION
 40
0.0
  9
$TIMEZONE
 70
 -8000
  9
$LIGHTGLYPHDISPLAY
280
     1
  9
$TILEMODELIGHTSYNCH
280
     1
  9
$CMATERIAL
347
11
  9
$SOLIDHIST
280
     0
  9
$SHOWHIST
280
     1
  9
$DWFFRAME
280
     2
  9
$DGNFRAME
280
     0
  9
$REALWORLDSCALE
290
     1
  9
$INTERFERECOLOR
 62
     1
  9
$INTERFEREOBJVS
345
33
  9
$INTERFEREVPVS
346
30
  9
$CSHADOW
280
     0
  9
$SHADOWPLANELOCATION
 40
0.0
  0
ENDSEC
  0
SECTION
  2
CLASSES
  0
CLASS
  1
ACDBDICTIONARYWDFLT
  2
AcDbDictionaryWithDefault
  3
ObjectDBX Classes
 90
        0
 91
        1
280
     0
281
     0
  0
CLASS
  1
MATERIAL
  2
AcDbMaterial
  3
ObjectDBX Classes
 90
     1153
 91
        3
280
     0
281
     0
  0
CLASS
  1
VISUALSTYLE
  2
AcDbVisualStyle
  3
ObjectDBX Classes
 90
     4095
 91
       24
280
     0
281
     0
  0
CLASS
  1
SCALE
  2
AcDbScale
  3
ObjectDBX Classes
 90
     1153
 91
       17
280
     0
281
     0
  0
CLASS
  1
TABLESTYLE
  2
AcDbTableStyle
  3
ObjectDBX Classes
 90
     4095
 91
        1
280
     0
281
     0
  0
CLASS
  1
MLEADERSTYLE
  2
AcDbMLeaderStyle
  3
ACDB_MLEADERSTYLE_CLASS
 90
     4095
 91
        1
280
     0
281
     0
  0
CLASS
  1
ACDBSECTIONVIEWSTYLE
  2
AcDbSectionViewStyle
  3
ObjectDBX Classes
 90
     1025
 91
        1
280
     0
281
     0
  0
CLASS
  1
ACDBDETAILVIEWSTYLE
  2
AcDbDetailViewStyle
  3
ObjectDBX Classes
 90
     1025
 91
        1
280
     0
281
     0
  0
CLASS
  1
DICTIONARYVAR
  2
AcDbDictionaryVar
  3
ObjectDBX Classes
 90
        0
 91
        5
280
     0
281
     0
  0
CLASS
  1
CELLSTYLEMAP
  2
AcDbCellStyleMap
  3
ObjectDBX Classes
 90
     1152
 91
        1
280
     0
281
     0
  0
ENDSEC
  0
SECTION
  2
TABLES
  0
TABLE
  2
VPORT
  5
8
330
0
100
AcDbSymbolTable
 70
     1
1001
ACAD
1000
DbSaveVer
1071
      267
  0
VPORT
  5
57
330
8
100
AcDbSymbolTableRecord
100
AcDbViewportTableRecord
  2
*Active
 70
     0
 10
0.0
 20
0.0
 11
1.0
 21
1.0
 12
500.0
 22
500.0
 13
0.0
 23
0.0
 14
1.0
 24
1.0
 15
0.0
 25
0.0
 16
0.0
 26
0.0
 36
1.0
 17
0.0
 27
0.0
 37
0.0
 40
12.0
 41
1.0
 42
50.0
 43
0.0
 44
0.0
 50
0.0
 51
0.0
 71
     0
 72
   100
 73
     1
 74
     1
 75
     0
 76
     0
 77
     0
 78
     0
281
     0
 65
     1
110
0.0
120
0.0
130
0.0
111
1.0
121
0.0
131
0.0
112
0.0
122
1.0
132
0.0
 79
     0
146
0.0
 60
     3
 61
     5
292
     1
282
     1
141
0.0
142
0.0
 63
   250
421
  3355443
  0
ENDTAB
  0
TABLE
  2
LTYPE
  5
5
330
0
100
AcDbSymbolTable
 70
     1
  0
LTYPE
  5
5B
330
5
100
AcDbSymbolTableRecord
100
AcDbLinetypeTableRecord
  2
ByBlock
 70
     0
  3

 72
    65
 73
     0
 40
0.0
  0
LTYPE
  5
5C
330
5
100
AcDbSymbolTableRecord
100
AcDbLinetypeTableRecord
  2
ByLayer
 70
     0
  3

 72
    65
 73
     0
 40
0.0
  0
LTYPE
  5
5D
330
5
100
AcDbSymbolTableRecord
100
AcDbLinetypeTableRecord
  2
Continuous
 70
     0
  3
Solid line
 72
    65
 73
     0
 40
0.0
  0
ENDTAB
  0
TABLE
  2
LAYER
  5
2
330
0
100
AcDbSymbolTable
 70
     3
  0
LAYER
  5
54
330
2
100
AcDbSymbolTableRecord
100
AcDbLayerTableRecord
  2
0
 70
     0
 62
     7
  6
Continuous
370
    -3
390
F
347
21
348
0
  0
LAYER
  5
7A
330
2
100
AcDbSymbolTableRecord
100
AcDbLayerTableRecord
  2
tree v4_Sketch1
 70
     0
 62
     7
  6
Continuous
370
    -3
390
F
347
21
348
0
1001
NFusion_SketchTransform
1000
1.000000;0.000000;0.000000;0.000000;0.000000;1.000000;0.000000;0.000000;0.000000;0.000000;1.000000;0.000000;0.000000;0.000000;0.000000;1.000000
  0
LAYER
  5
E3
330
2
100
AcDbSymbolTableRecord
100
AcDbLayerTableRecord
  2
tree v4_Sketch2
 70
     0
 62
     7
  6
Continuous
370
    -3
390
F
347
21
348
0
1001
NFusion_SketchTransform
1000
0.962766;0.254887;-0.090080;-9.747699;-0.257834;0.965926;-0.022558;0.213349;0.081261;0.044943;0.995679;-1.041731;0.000000;0.000000;0.000000;1.000000
  0
ENDTAB
  0
TABLE
  2
STYLE
  5
3
330
0
100
AcDbSymbolTable
 70
     2
  0
STYLE
  5
55
330
3
100
AcDbSymbolTableRecord
100
AcDbTextStyleTableRecord
  2
Standard
 70
     0
 40
0.0
 41
1.0
 50
0.0
 71
     0
 42
0.2
  3
txt
  4

  0
STYLE
  5
5A
330
3
100
AcDbSymbolTableRecord
100
AcDbTextStyleTableRecord
  2
Annotative
 70
     0
 40
0.0
 41
1.0
 50
0.0
 71
     0
 42
0.2
  3
txt
  4

1001
AcadAnnotative
1000
AnnotativeData
1002
{
1070
     1
1070
     1
1002
}
  0
ENDTAB
  0
TABLE
  2
VIEW
  5
6
330
0
100
AcDbSymbolTable
 70
     0
  0
ENDTAB
  0
TABLE
  2
UCS
  5
7
330
0
100
AcDbSymbolTable
 70
     0
  0
ENDTAB
  0
TABLE
  2
APPID
  5
9
330
0
100
AcDbSymbolTable
 70
     4
  0
APPID
  5
56
330
9
100
AcDbSymbolTableRecord
100
AcDbRegAppTableRecord
  2
ACAD
 70
     0
  0
APPID
  5
5E
330
9
100
AcDbSymbolTableRecord
100
AcDbRegAppTableRecord
  2
AcadAnnotative
 70
     0
  0
APPID
  5
78
330
9
100
AcDbSymbolTableRecord
100
AcDbRegAppTableRecord
  2
EDIT_IN_FUSION_ACAD_ADDIN
 70
     0
  0
APPID
  5
79
330
9
100
AcDbSymbolTableRecord
100
AcDbRegAppTableRecord
  2
NFusion_SketchTransform
 70
     0
  0
ENDTAB
  0
TABLE
  2
DIMSTYLE
  5
A
330
0
100
AcDbSymbolTable
 70
     2
100
AcDbDimStyleTable
 71
     0
  0
DIMSTYLE
105
58
330
A
100
AcDbSymbolTableRecord
100
AcDbDimStyleTableRecord
  2
Standard
 70
     0
340
55
  0
DIMSTYLE
105
59
330
A
100
AcDbSymbolTableRecord
100
AcDbDimStyleTableRecord
  2
Annotative
 70
     0
340
55
1001
AcadAnnotative
1000
AnnotativeData
1002
{
1070
     1
1070
     1
1002
}
  0
ENDTAB
  0
TABLE
  2
BLOCK_RECORD
  5
1
330
0
100
AcDbSymbolTable
 70
     1
  0
BLOCK_RECORD
  5
70
330
1
100
AcDbSymbolTableRecord
100
AcDbBlockTableRecord
  2
*Model_Space
340
73
 70
     0
280
     1
281
     0
  0
BLOCK_RECORD
  5
6C
330
1
100
AcDbSymbolTableRecord
100
AcDbBlockTableRecord
  2
*Paper_Space
340
6F
 70
     0
280
     1
281
     0
  0
BLOCK_RECORD
  5
74
330
1
100
AcDbSymbolTableRecord
100
AcDbBlockTableRecord
  2
*Paper_Space0
340
77
 70
     0
280
     1
281
     0
  0
ENDTAB
  0
ENDSEC
  0
SECTION
  2
BLOCKS
  0
BLOCK
  5
71
330
70
100
AcDbEntity
  8
0
100
AcDbBlockBegin
  2
*Model_Space
 70
     0
 10
0.0
 20
0.0
 30
0.0
  3
*Model_Space
  1

  0
ENDBLK
  5
72
330
70
100
AcDbEntity
  8
0
100
AcDbBlockEnd
  0
BLOCK
  5
6D
330
6C
100
AcDbEntity
 67
     1
  8
0
100
AcDbBlockBegin
  2
*Paper_Space
 70
     0
 10
0.0
 20
0.0
 30
0.0
  3
*Paper_Space
  1

  0
ENDBLK
  5
6E
330
6C
100
AcDbEntity
 67
     1
  8
0
100
AcDbBlockEnd
  0
BLOCK
  5
75
330
74
100
AcDbEntity
 67
     1
  8
0
100
AcDbBlockBegin
  2
*Paper_Space0
 70
     0
 10
0.0
 20
0.0
 30
0.0
  3
*Paper_Space0
  1

  0
ENDBLK
  5
76
330
74
100
AcDbEntity
 67
     1
  8
0
100
AcDbBlockEnd
  0
ENDSEC
  0
SECTION
  2
ENTITIES
  0
POINT
  5
7B
330
70
100
AcDbEntity
  8
tree v4_Sketch1
100
AcDbPoint
 10
0.0
 20
0.0
 30
0.0
  0
SPLINE
  5
7C
330
70
100
AcDbEntity
  8
tree v4_Sketch1
100
AcDbSpline
210
0.0
220
0.0
230
1.0
 70
    12
 71
     5
 72
    21
 73
    15
 74
     0
 42
0.000000001
 43
0.0000000001
 40
0.0
 40
0.0
 40
0.0
 40
0.0
 40
0.0
 40
0.0
 40
0.1
 40
0.2
 40
0.3
 40
0.4
 40
0.5
 40
0.6
 40
0.7
 40
0.8
 40
0.9
 40
1.0
 40
1.0
 40
1.0
 40
1.0
 40
1.0
 40
1.0
 10
-1.761902293734307
 20
8.639232730852725
 30
0.0
 41
1.0
 10
-1.862055548193339
 20
8.625963589699498
 30
0.0
 41
1.0
 10
-2.049938150019167
 20
8.60541817643037
 30
0.0
 41
1.0
 10
-2.294495534446965
 20
8.592576153905477
 30
0.0
 41
1.0
 10
-2.544767312942729
 20
8.612019075439961
 30
0.0
 41
1.0
 10
-2.724744122466061
 20
8.700411265299132
 30
0.0
 41
1.0
 10
-2.765387702224277
 20
8.856013052931725
 30
0.0
 41
1.0
 10
-2.667337596239754
 20
9.078515944111867
 30
0.0
 41
1.0
 10
-2.441575477234223
 20
9.362622754471148
 30
0.0
 41
1.0
 10
-2.101953675933794
 20
9.701651592130589
 30
0.0
 41
1.0
 10
-1.662100128079541
 20
10.08902880569889
 30
0.0
 41
1.0
 10
-1.238570624712707
 20
10.43349048411883
 30
0.0
 41
1.0
 10
-0.883574238749834
 20
10.70985275132333
 30
0.0
 41
1.0
 10
-0.6305798093295537
 20
10.90197138084225
 30
0.0
 41
1.0
 10
-0.5
 20
11.0
 30
0.0
 41
1.0
  0
LINE
  5
7D
330
70
100
AcDbEntity
  8
tree v4_Sketch1
100
AcDbLine
 10
2.339204001021752
 20
8.151209246699398
 30
0.0
 11
1.184600586446862
 21
9.127256215006052
 31
0.0
  0
SPLINE
  5
7E
330
70
100
AcDbEntity
  8
tree v4_Sketch1
100
AcDbSpline
210
0.0
220
0.0
230
1.0
 70
    12
 71
     5
 72
    21
 73
    15
 74
     0
 42
0.000000001
 43
0.0000000001
 40
0.0
 40
0.0
 40
0.0
 40
0.0
 40
0.0
 40
0.0
 40
0.1
 40
0.2
 40
0.3
 40
0.4
 40
0.5
 40
0.6
 40
0.7
 40
0.8
 40
0.9
 40
1.0
 40
1.0
 40
1.0
 40
1.0
 40
1.0
 40
1.0
 10
1.507814193626543
 20
3.027327247749725
 30
0.0
 41
1.0
 10
1.719788265371452
 20
3.010842917781218
 30
0.0
 41
1.0
 10
2.126720973832705
 20
2.984623073667071
 30
0.0
 41
1.0
 10
2.686074551636374
 20
2.965539429650314
 30
0.0
 41
1.0
 10
3.32810168416178
 20
2.981255796836674
 30
0.0
 41
1.0
 10
3.946058345522377
 20
3.074109956756708
 30
0.0
 41
1.0
 10
4.363430969137218
 20
3.246521572918846
 30
0.0
 41
1.0
 10
4.56460879362743
 20
3.504682326770583
 30
0.0
 41
1.0
 10
4.542475287098607
 20
3.851414841592581
 30
0.0
 41
1.0
 10
4.307469467806899
 20
4.282578699495438
 30
0.0
 41
1.0
 10
3.876330015088588
 20
4.791534854003264
 30
0.0
 41
1.0
 10
3.387721694420766
 20
5.255694086349472
 30
0.0
 41
1.0
 10
2.945623793444351
 20
5.633815190507338
 30
0.0
 41
1.0
 10
2.617823598139492
 20
5.899011759669281
 30
0.0
 41
1.0
 10
2.445656075603405
 20
6.034889145123796
 30
0.0
 41
1.0
  0
SPLINE
  5
7F
330
70
100
AcDbEntity
  8
tree v4_Sketch1
100
AcDbSpline
210
0.0
220
0.0
230
1.0
 70
    12
 71
     5
 72
    21
 73
    15
 74
     0
 42
0.000000001
 43
0.0000000001
 40
0.0
 40
0.0
 40
0.0
 40
0.0
 40
0.0
 40
0.0
 40
0.1
 40
0.2
 40
0.3
 40
0.4
 40
0.5
 40
0.6
 40
0.7
 40
0.8
 40
0.9
 40
1.0
 40
1.0
 40
1.0
 40
1.0
 40
1.0
 40
1.0
 10
1.761902293734307
 20
8.639232730852725
 30
0.0
 41
1.0
 10
1.86205554819329
 20
8.625963589699344
 30
0.0
 41
1.0
 10
2.04993815001904
 20
8.605418176429958
 30
0.0
 41
1.0
 10
2.294495534446776
 20
8.592576153904845
 30
0.0
 41
1.0
 10
2.544767312942553
 20
8.612019075439361
 30
0.0
 41
1.0
 10
2.724744122465987
 20
8.70041126529888
 30
0.0
 41
1.0
 10
2.765387702224318
 20
8.856013052931862
 30
0.0
 41
1.0
 10
2.667337596239865
 20
9.078515944112256
 30
0.0
 41
1.0
 10
2.441575477234351
 20
9.362622754471615
 30
0.0
 41
1.0
 10
2.101953675933894
 20
9.701651592130977
 30
0.0
 41
1.0
 10
1.662100128079594
 20
10.08902880569911
 30
0.0
 41
1.0
 10
1.238570624712725
 20
10.43349048411892
 30
0.0
 41
1.0
 10
0.883574238749837
 20
10.70985275132335
 30
0.0
 41
1.0
 10
0.6305798093295536
 20
10.90197138084225
 30
0.0
 41
1.0
 10
0.5
 20
11.0
 30
0.0
 41
1.0
  0
LINE
  5
80
330
70
100
AcDbEntity
  8
tree v4_Sketch1
100
AcDbLine
 10
-0.4931316494982588
 20
3.106234831743408
 30
0.0
 11
-2.522496737754829
 21
2.948419663756042
 31
0.0
  0
LINE
  5
81
330
70
100
AcDbEntity
  8
tree v4_Sketch1
100
AcDbLine
 10
-3.239877820162698
 20
5.408076535334281
 30
0.0
 11
-1.651434331044113
 21
6.661701754913311
 31
0.0
  0
SPLINE
  5
82
330
70
100
AcDbEntity
  8
tree v4_Sketch1
100
AcDbSpline
210
0.0
220
0.0
230
1.0
 70
    12
 71
     5
 72
    21
 73
    15
 74
     0
 42
0.000000001
 43
0.0000000001
 40
0.0
 40
0.0
 40
0.0
 40
0.0
 40
0.0
 40
0.0
 40
0.1
 40
0.2
 40
0.3
 40
0.4
 40
0.5
 40
0.6
 40
0.7
 40
0.8
 40
0.9
 40
1.0
 40
1.0
 40
1.0
 40
1.0
 40
1.0
 40
1.0
 10
-1.507814193626543
 20
3.027327247749725
 30
0.0
 41
1.0
 10
-1.719788265371452
 20
3.010842917781218
 30
0.0
 41
1.0
 10
-2.126720973832705
 20
2.984623073667071
 30
0.0
 41
1.0
 10
-2.686074551636374
 20
2.965539429650314
 30
0.0
 41
1.0
 10
-3.32810168416178
 20
2.981255796836674
 30
0.0
 41
1.0
 10
-3.946058345522377
 20
3.074109956756708
 30
0.0
 41
1.0
 10
-4.363430969137218
 20
3.246521572918846
 30
0.0
 41
1.0
 10
-4.56460879362743
 20
3.504682326770583
 30
0.0
 41
1.0
 10
-4.542475287098607
 20
3.851414841592581
 30
0.0
 41
1.0
 10
-4.307469467806899
 20
4.282578699495438
 30
0.0
 41
1.0
 10
-3.876330015088588
 20
4.791534854003264
 30
0.0
 41
1.0
 10
-3.387721694420766
 20
5.255694086349472
 30
0.0
 41
1.0
 10
-2.945623793444351
 20
5.633815190507338
 30
0.0
 41
1.0
 10
-2.617823598139492
 20
5.899011759669281
 30
0.0
 41
1.0
 10
-2.445656075603405
 20
6.034889145123796
 30
0.0
 41
1.0
  0
LINE
  5
83
330
70
100
AcDbEntity
  8
tree v4_Sketch1
100
AcDbLine
 10
0.4931316494982588
 20
3.106234831743407
 30
0.0
 11
2.522496737754829
 21
2.948419663756041
 31
0.0
  0
SPLINE
  5
84
330
70
100
AcDbEntity
  8
tree v4_Sketch1
100
AcDbSpline
210
0.0
220
0.0
230
1.0
 70
    12
 71
     5
 72
    21
 73
    15
 74
     0
 42
0.000000001
 43
0.0000000001
 40
0.0
 40
0.0
 40
0.0
 40
0.0
 40
0.0
 40
0.0
 40
0.1
 40
0.2
 40
0.3
 40
0.4
 40
0.5
 40
0.6
 40
0.7
 40
0.8
 40
0.9
 40
1.0
 40
1.0
 40
1.0
 40
1.0
 40
1.0
 40
1.0
 10
2.445656075603405
 20
6.034889145123796
 30
0.0
 41
1.0
 10
2.56217446489946
 20
6.023060549472929
 30
0.0
 41
1.0
 10
2.782732056864948
 20
6.005529725927281
 30
0.0
 41
1.0
 10
3.076131777288655
 20
5.997612155795895
 30
0.0
 41
1.0
 10
3.391218343213417
 20
6.02442134089868
 30
0.0
 41
1.0
 10
3.650951841014463
 20
6.123778243198795
 30
0.0
 41
1.0
 10
3.768578224858459
 20
6.292899343026386
 30
0.0
 41
1.0
 10
3.740405641195525
 20
6.53359707040637
 30
0.0
 41
1.0
 10
3.574317741495498
 20
6.842001129171845
 30
0.0
 41
1.0
 10
3.283419796535465
 20
7.211677790048877
 30
0.0
 41
1.0
 10
2.881366981609357
 20
7.635923360872866
 30
0.0
 41
1.0
 10
2.479789461923684
 20
8.014562186566845
 30
0.0
 41
1.0
 10
2.136827967523704
 20
8.319051421791961
 30
0.0
 41
1.0
 10
1.889921809868265
 20
8.53101110338366
 30
0.0
 41
1.0
 10
1.761902293734307
 20
8.639232730852725
 30
0.0
 41
1.0
  0
LINE
  5
85
330
70
100
AcDbEntity
  8
tree v4_Sketch1
100
AcDbLine
 10
-0.9632345187212937
 20
8.745046920300922
 30
0.0
 11
-2.56057006874732
 21
8.533418541404529
 31
0.0
  0
LINE
  5
86
330
70
100
AcDbEntity
  8
tree v4_Sketch1
100
AcDbLine
 10
-1.076010895692824
 20
10.56757822656885
 30
0.0
 11
0.0760108956928247
 21
11.43242177343114
 31
0.0
  0
LINE
  5
87
330
70
100
AcDbEntity
  8
tree v4_Sketch1
100
AcDbLine
 10
1.507814193626543
 20
3.027327247749724
 30
0.0
 11
1.507814193626543
 21
0.0
 31
0.0
  0
LINE
  5
88
330
70
100
AcDbEntity
  8
tree v4_Sketch1
100
AcDbLine
 10
1.507814193626543
 20
0.0
 30
0.0
 11
0.0
 21
0.0
 31
0.0
  0
LINE
  5
89
330
70
100
AcDbEntity
  8
tree v4_Sketch1
100
AcDbLine
 10
7.0
 20
6.0
 30
0.0
 11
14.0
 21
6.0
 31
0.0
  0
SPLINE
  5
8A
330
70
100
AcDbEntity
  8
tree v4_Sketch1
100
AcDbSpline
210
0.0
220
0.0
230
1.0
 70
    28
 71
     5
 72
    16
 73
    10
 74
     0
 42
0.000000001
 43
0.0000000001
 40
0.0
 40
0.0
 40
0.0
 40
0.0
 40
0.0
 40
0.0
 40
0.2
 40
0.4
 40
0.6000000000000001
 40
0.8
 40
1.0
 40
1.0
 40
1.0
 40
1.0
 40
1.0
 40
1.0
 10
-0.2854659717260091
 20
10.71422822490605
 30
0.0
 41
1.0
 10
-0.2626286939878663
 20
10.71422822490472
 30
0.0
 41
1.0
 10
-0.2169541385115985
 20
10.71422822490239
 30
0.0
 41
1.0
 10
-0.1484423052972523
 20
10.71422822489998
 30
0.0
 41
1.0
 10
-0.0570931943448874
 20
10.71422822489868
 30
0.0
 41
1.0
 10
0.0570931943454635
 20
10.7142282248994
 30
0.0
 41
1.0
 10
0.1484423052976971
 20
10.71422822490132
 30
0.0
 41
1.0
 10
0.2169541385118582
 20
10.71422822490343
 30
0.0
 41
1.0
 10
0.2626286939879598
 20
10.71422822490513
 30
0.0
 41
1.0
 10
0.2854659717260091
 20
10.71422822490605
 30
0.0
 41
1.0
  0
SPLINE
  5
8B
330
70
100
AcDbEntity
  8
tree v4_Sketch1
100
AcDbSpline
210
0.0
220
0.0
230
1.0
 70
    12
 71
     5
 72
    21
 73
    15
 74
     0
 42
0.000000001
 43
0.0000000001
 40
0.0
 40
0.0
 40
0.0
 40
0.0
 40
0.0
 40
0.0
 40
0.1
 40
0.2
 40
0.3
 40
0.4
 40
0.5
 40
0.6
 40
0.7
 40
0.8
 40
0.9
 40
1.0
 40
1.0
 40
1.0
 40
1.0
 40
1.0
 40
1.0
 10
-2.445656075603405
 20
6.034889145123796
 30
0.0
 41
1.0
 10
-2.562174464899861
 20
6.023060549474718
 30
0.0
 41
1.0
 10
-2.782732056866008
 20
6.005529725932014
 30
0.0
 41
1.0
 10
-3.076131777290269
 20
5.997612155803089
 30
0.0
 41
1.0
 10
-3.391218343215029
 20
6.024421340905833
 30
0.0
 41
1.0
 10
-3.650951841015338
 20
6.123778243202647
 30
0.0
 41
1.0
 10
-3.768578224858414
 20
6.292899343026172
 30
0.0
 41
1.0
 10
-3.740405641194811
 20
6.533597070403265
 30
0.0
 41
1.0
 10
-3.574317741494542
 20
6.842001129167724
 30
0.0
 41
1.0
 10
-3.283419796534661
 20
7.211677790045429
 30
0.0
 41
1.0
 10
-2.881366981608919
 20
7.635923360870997
 30
0.0
 41
1.0
 10
-2.479789461923531
 20
8.014562186566202
 30
0.0
 41
1.0
 10
-2.136827967523674
 20
8.319051421791836
 30
0.0
 41
1.0
 10
-1.889921809868265
 20
8.53101110338366
 30
0.0
 41
1.0
 10
-1.761902293734307
 20
8.639232730852725
 30
0.0
 41
1.0
  0
LINE
  5
8C
330
70
100
AcDbEntity
  8
tree v4_Sketch1
100
AcDbLine
 10
1.076010895692824
 20
10.56757822656885
 30
0.0
 11
-0.0760108956928247
 21
11.43242177343114
 31
0.0
  0
LINE
  5
8D
330
70
100
AcDbEntity
  8
tree v4_Sketch1
100
AcDbLine
 10
15.0
 20
5.0
 30
0.0
 11
15.0
 21
1.0
 31
0.0
  0
LINE
  5
8E
330
70
100
AcDbEntity
  8
tree v4_Sketch1
100
AcDbLine
 10
-1.507814193626543
 20
0.0
 30
0.0
 11
0.0
 21
0.0
 31
0.0
  0
LINE
  5
8F
330
70
100
AcDbEntity
  8
tree v4_Sketch1
100
AcDbLine
 10
3.239877820162698
 20
5.408076535334281
 30
0.0
 11
1.651434331044113
 21
6.661701754913311
 31
0.0
  0
LINE
  5
90
330
70
100
AcDbEntity
  8
tree v4_Sketch1
100
AcDbLine
 10
-1.507814193626543
 20
3.027327247749725
 30
0.0
 11
-1.507814193626543
 21
0.0
 31
0.0
  0
SPLINE
  5
91
330
70
100
AcDbEntity
  8
tree v4_Sketch1
100
AcDbSpline
210
0.0
220
0.0
230
1.0
 70
    28
 71
     5
 72
    14
 73
     8
 74
     0
 42
0.000000001
 43
0.0000000001
 40
0.0
 40
0.0
 40
0.0
 40
0.0
 40
0.0
 40
0.0
 40
0.2
 40
0.4
 40
0.4777859362948651
 40
0.4777859362948651
 40
0.4777859362948651
 40
0.4777859362948651
 40
0.4777859362948651
 40
0.4777859362948651
 10
-2.230080024417019
 20
3.343031087014108
 30
0.0
 41
1.0
 10
-2.070400731690626
 20
3.454081851698176
 30
0.0
 41
1.0
 10
-1.75104214623794
 20
3.676183381066363
 30
0.0
 41
1.0
 10
-1.369579544327396
 20
3.941475848970749
 30
0.0
 41
1.0
 10
-0.9881169424171037
 20
4.206768316875276
 30
0.0
 41
1.0
 10
-0.6066543405069924
 20
4.472060784779904
 30
0.0
 41
1.0
 10
-0.3848710313229897
 20
4.626302488000306
 30
0.0
 41
1.0
 10
-0.322767014865015
 20
4.66949342653644
 30
0.0
 41
1.0
  0
SPLINE
  5
92
330
70
100
AcDbEntity
  8
tree v4_Sketch1
100
AcDbSpline
210
0.0
220
0.0
230
1.0
 70
    12
 71
     5
 72
    16
 73
    10
 74
     0
 42
0.000000001
 43
0.0000000001
 40
0.0
 40
0.0
 40
0.0
 40
0.0
 40
0.0
 40
0.0
 40
0.1
 40
0.2
 40
0.3
 40
0.4
 40
0.4389209202696028
 40
0.4389209202696028
 40
0.4389209202696028
 40
0.4389209202696028
 40
0.4389209202696028
 40
0.4389209202696028
 10
-4.16990260493159
 20
3.652349018295759
 30
0.0
 41
1.0
 10
-3.998112236209859
 20
3.673460053453398
 30
0.0
 41
1.0
 10
-3.659171275311928
 20
3.721724558777466
 30
0.0
 41
1.0
 10
-3.16467872631267
 20
3.812248052303461
 30
0.0
 41
1.0
 10
-2.533654876907781
 20
3.969800876120345
 30
0.0
 41
1.0
 10
-1.885446825728485
 20
4.200266795127692
 30
0.0
 41
1.0
 10
-1.416439180069908
 20
4.419271856163289
 30
0.0
 41
1.0
 10
-1.102497668930739
 20
4.59538571714568
 30
0.0
 41
1.0
 10
-0.9257343707296076
 20
4.705312729559463
 30
0.0
 41
1.0
 10
-0.8766673053791198
 20
4.736704400353623
 30
0.0
 41
1.0
  0
LINE
  5
93
330
70
100
AcDbEntity
  8
tree v4_Sketch1
100
AcDbLine
 10
1.674504216624299
 20
4.171515850954278
 30
0.0
 11
1.38377640686093
 21
4.08157099511899
 31
0.0
  0
LINE
  5
94
330
70
100
AcDbEntity
  8
tree v4_Sketch1
100
AcDbLine
 10
12.0
 20
3.294374354466031
 30
0.0
 11
12.0
 21
3.049374354466031
 31
0.0
  0
LINE
  5
95
330
70
100
AcDbEntity
  8
tree v4_Sketch1
100
AcDbLine
 10
0.539459614285703
 20
8.914833083767565
 30
0.0
 11
0.6704037835888278
 21
8.863649738582914
 31
0.0
  0
LINE
  5
96
330
70
100
AcDbEntity
  8
tree v4_Sketch1
100
AcDbLine
 10
6.0
 20
0.9999999999999998
 30
0.0
 11
6.0
 21
5.0
 31
0.0
  0
SPLINE
  5
97
330
70
100
AcDbEntity
  8
tree v4_Sketch1
100
AcDbSpline
210
0.0
220
0.0
230
1.0
 70
    28
 71
     5
 72
    16
 73
    10
 74
     0
 42
0.000000001
 43
0.0000000001
 40
0.0
 40
0.0
 40
0.0
 40
0.0
 40
0.0
 40
0.0
 40
0.2
 40
0.4
 40
0.6000000000000001
 40
0.8
 40
1.0
 40
1.0
 40
1.0
 40
1.0
 40
1.0
 40
1.0
 10
2.16343174922561
 20
6.422714171221318
 30
0.0
 41
1.0
 10
2.189901569859206
 20
6.452530650649108
 30
0.0
 41
1.0
 10
2.242841211126453
 20
6.512163609504832
 30
0.0
 41
1.0
 10
2.322250673027499
 20
6.601613047788889
 30
0.0
 41
1.0
 10
2.428129955562529
 20
6.720878965501796
 30
0.0
 41
1.0
 10
2.560479058731655
 20
6.869961362643953
 30
0.0
 41
1.0
 10
2.666358341267097
 20
6.989227280358268
 30
0.0
 41
1.0
 10
2.745767803168719
 20
7.078676718644312
 30
0.0
 41
1.0
 10
2.798707444436477
 20
7.138309677501804
 30
0.0
 41
1.0
 10
2.82517726507036
 20
7.168126156930585
 30
0.0
 41
1.0
  0
SPLINE
  5
98
330
70
100
AcDbEntity
  8
tree v4_Sketch1
100
AcDbSpline
210
0.0
220
0.0
230
1.0
 70
     8
 71
     3
 72
    14
 73
    10
 74
     0
 42
0.000000001
 43
0.0000000001
 40
-0.0546376757545286
 40
-0.0546376757545286
 40
-0.0546376757545286
 40
-0.0546376757545286
 40
0.0
 40
0.0
 40
0.0
 40
0.153915861829526
 40
0.153915861829526
 40
0.153915861829526
 40
0.2497422520918178
 40
0.2497422520918178
 40
0.2497422520918178
 40
0.2497422520918178
 10
2.16343174923408
 20
6.422714171220459
 30
0.0
 10
2.269536648797741
 20
6.411942721658697
 30
0.0
 10
2.375641548361402
 20
6.401171272096934
 30
0.0
 10
2.481746447925063
 20
6.390399822535171
 30
0.0
 10
2.76558810744403
 20
6.361585072871315
 30
0.0
 10
2.996607959869193
 20
6.357340789856317
 30
0.0
 10
3.159467022535698
 20
6.372802498299367
 30
0.0
 10
3.260861355201143
 20
6.38242879470426
 30
0.0
 10
3.335075283714291
 20
6.400437081540478
 30
0.0
 10
3.374213692352553
 20
6.415580048795394
 30
0.0
  0
SPLINE
  5
99
330
70
100
AcDbEntity
  8
tree v4_Sketch1
100
AcDbSpline
210
0.0
220
0.0
230
1.0
 70
    12
 71
     5
 72
    13
 73
     7
 74
     0
 42
0.000000001
 43
0.0000000001
 40
0.896599231212598
 40
0.896599231212598
 40
0.896599231212598
 40
0.896599231212598
 40
0.896599231212598
 40
0.896599231212598
 40
0.9
 40
1.0
 40
1.0
 40
1.0
 40
1.0
 40
1.0
 40
1.0
 10
0.781973762850139
 20
9.221729878104675
 30
0.0
 41
1.0
 10
0.7833313347385119
 20
9.221000008194165
 30
0.0
 41
1.0
 10
0.8245802416298678
 20
9.198783372824474
 30
0.0
 41
1.0
 10
0.8649714396645723
 20
9.175811361926424
 30
0.0
 41
1.0
 10
0.9045178851570625
 20
9.152095385995298
 30
0.0
 41
1.0
 10
0.9432266269207538
 20
9.127641652849883
 30
0.0
 41
1.0
 10
0.9798787939501391
 20
9.103302184867542
 30
0.0
 41
1.0
  0
SPLINE
  5
9A
330
70
100
AcDbEntity
  8
tree v4_Sketch1
100
AcDbSpline
210
0.0
220
0.0
230
1.0
 70
    12
 71
     5
 72
    14
 73
     8
 74
     0
 42
0.000000001
 43
0.0000000001
 40
0.0
 40
0.0
 40
0.0
 40
0.0
 40
0.0
 40
0.0
 40
0.1
 40
0.2
 40
0.226801229236238
 40
0.226801229236238
 40
0.226801229236238
 40
0.226801229236238
 40
0.226801229236238
 40
0.226801229236238
 10
0.5998699178874714
 20
10.47546136734654
 30
0.0
 41
1.0
 10
0.5732827457003791
 20
10.37938186846593
 30
0.0
 41
1.0
 10
0.5168958810383463
 20
10.18959627073495
 30
0.0
 41
1.0
 10
0.4456668913997467
 20
9.979761065265041
 30
0.0
 41
1.0
 10
0.3660391981356152
 20
9.776130795998701
 30
0.0
 41
1.0
 10
0.2775872680711662
 20
9.579019845526421
 30
0.0
 41
1.0
 10
0.2252849016891601
 20
9.470923728740249
 30
0.0
 41
1.0
 10
0.2141018337203675
 20
9.448170821026636
 30
0.0
 41
1.0
  0
SPLINE
  5
9B
330
70
100
AcDbEntity
  8
tree v4_Sketch1
100
AcDbSpline
210
0.0
220
0.0
230
1.0
 70
    12
 71
     5
 72
    16
 73
    10
 74
     0
 42
0.000000001
 43
0.0000000001
 40
0.5746710109444257
 40
0.5746710109444257
 40
0.5746710109444257
 40
0.5746710109444257
 40
0.5746710109444257
 40
0.5746710109444257
 40
0.6
 40
0.7
 40
0.8
 40
0.9
 40
1.0
 40
1.0
 40
1.0
 40
1.0
 40
1.0
 40
1.0
 10
1.241712127814372
 20
4.676952477363213
 30
0.0
 41
1.0
 10
1.260928176216687
 20
4.683661475878845
 30
0.0
 41
1.0
 10
1.356506855589159
 20
4.716409745870773
 30
0.0
 41
1.0
 10
1.532739066375339
 20
4.771326486270989
 30
0.0
 41
1.0
 10
1.798200223282555
 20
4.840675855886097
 30
0.0
 41
1.0
 10
2.164605154643869
 20
4.913889963286147
 30
0.0
 41
1.0
 10
2.529509945701553
 20
4.964413634965596
 30
0.0
 41
1.0
 10
2.813856176046278
 20
4.992683163614998
 30
0.0
 41
1.0
 10
3.008083445536837
 20
5.007322941145909
 30
0.0
 41
1.0
 10
3.106362936770143
 20
5.013591116267908
 30
0.0
 41
1.0
  0
SPLINE
  5
9C
330
70
100
AcDbEntity
  8
tree v4_Sketch1
100
AcDbSpline
210
0.0
220
0.0
230
1.0
 70
    12
 71
     5
 72
    18
 73
    12
 74
     0
 42
0.000000001
 43
0.0000000001
 40
0.0
 40
0.0
 40
0.0
 40
0.0
 40
0.0
 40
0.0
 40
0.1
 40
0.2
 40
0.3
 40
0.4
 40
0.5
 40
0.6
 40
0.6399488622806869
 40
0.6399488622806869
 40
0.6399488622806869
 40
0.6399488622806869
 40
0.6399488622806869
 40
0.6399488622806869
 10
-1.70452755338556
 20
9.57010569108802
 30
0.0
 41
1.0
 10
-1.635005293500945
 20
9.574714581935072
 30
0.0
 41
1.0
 10
-1.497275250651296
 20
9.582774717081154
 30
0.0
 41
1.0
 10
-1.294623363892485
 20
9.59139220318484
 30
0.0
 41
1.0
 10
-1.032439133685669
 20
9.595820561619003
 30
0.0
 41
1.0
 10
-0.719040827441309
 20
9.588733978280961
 30
0.0
 41
1.0
 10
-0.4214580130632706
 20
9.567718850975188
 30
0.0
 41
1.0
 10
-0.174989004426396
 20
9.535688461437356
 30
0.0
 41
1.0
 10
0.0045328071526826
 20
9.501317012876212
 30
0.0
 41
1.0
 10
0.1257440315521922
 20
9.472210680392464
 30
0.0
 41
1.0
 10
0.1945968819187353
 20
9.453611517994671
 30
0.0
 41
1.0
 10
0.2141018337210471
 20
9.4481708210263
 30
0.0
 41
1.0
  0
LINE
  5
9D
330
70
100
AcDbEntity
  8
tree v4_Sketch1
100
AcDbLine
 10
1.076113676427599
 20
4.619136232249527
 30
0.0
 11
1.407310579201145
 21
4.7347687224769
 31
0.0
  0
LINE
  5
9E
330
70
100
AcDbEntity
  8
tree v4_Sketch1
100
AcDbLine
 10
-1.111821736302977
 20
7.202925336260032
 30
0.0
 11
-0.5740368460043607
 21
7.353223864191819
 31
0.0
  0
LINE
  5
9F
330
70
100
AcDbEntity
  8
tree v4_Sketch1
100
AcDbLine
 10
-2.593546978726997
 20
7.014506776939275
 30
0.0
 11
-2.507809938100109
 21
7.019444778407705
 31
0.0
  0
SPLINE
  5
A0
330
70
100
AcDbEntity
  8
tree v4_Sketch1
100
AcDbSpline
210
0.0
220
0.0
230
1.0
 70
    12
 71
     5
 72
    17
 73
    11
 74
     0
 42
0.000000001
 43
0.0000000001
 40
0.4144903283127769
 40
0.4144903283127769
 40
0.4144903283127769
 40
0.4144903283127769
 40
0.4144903283127769
 40
0.4144903283127769
 40
0.5
 40
0.6
 40
0.7
 40
0.8
 40
0.9
 40
1.0
 40
1.0
 40
1.0
 40
1.0
 40
1.0
 40
1.0
 10
-0.8429292911536691
 20
7.278074600225926
 30
0.0
 41
1.0
 10
-0.7650024814195847
 20
7.299853354149171
 30
0.0
 41
1.0
 10
-0.5984999152982483
 20
7.349693116318643
 30
0.0
 41
1.0
 10
-0.350969618056951
 20
7.435246021036516
 30
0.0
 41
1.0
 10
-0.0356216022127149
 20
7.569904284985999
 30
0.0
 41
1.0
 10
0.3294202376022757
 20
7.77204178356882
 30
0.0
 41
1.0
 10
0.6730715028140203
 20
8.012942975118569
 30
0.0
 41
1.0
 10
0.9240003292964249
 20
8.229987035468941
 30
0.0
 41
1.0
 10
1.099516596181408
 20
8.405625332340127
 30
0.0
 41
1.0
 10
1.210982159921916
 20
8.528339296516509
 30
0.0
 41
1.0
 10
1.265328667654924
 20
8.591101673459638
 30
0.0
 41
1.0
  0
LINE
  5
A1
330
70
100
AcDbEntity
  8
tree v4_Sketch1
100
AcDbLine
 10
0.1992870805731251
 20
9.387264522530196
 30
0.0
 11
-0.1772663997275689
 21
8.765197888555301
 31
0.0
  0
SPLINE
  5
A2
330
70
100
AcDbEntity
  8
tree v4_Sketch1
100
AcDbSpline
210
0.0
220
0.0
230
1.0
 70
    12
 71
     5
 72
    13
 73
     7
 74
     0
 42
0.000000001
 43
0.0000000001
 40
0.6306185170282156
 40
0.6306185170282156
 40
0.6306185170282156
 40
0.6306185170282156
 40
0.6306185170282156
 40
0.6306185170282156
 40
0.8
 40
1.0
 40
1.0
 40
1.0
 40
1.0
 40
1.0
 40
1.0
 10
0.3000005661582381
 20
3.441640589779313
 30
0.0
 41
1.0
 10
0.3779807457634437
 20
3.439972719035633
 30
0.0
 41
1.0
 10
0.5480482529962111
 20
3.435773017515713
 30
0.0
 41
1.0
 10
0.7181366297368092
 20
3.430499854200259
 30
0.0
 41
1.0
 10
0.8882412582699073
 20
3.424390749831569
 30
0.0
 41
1.0
 10
1.05836115856673
 20
3.417496114005116
 30
0.0
 41
1.0
 10
1.150476318880791
 20
3.413532657439452
 30
0.0
 41
1.0
  0
SPLINE
  5
A3
330
70
100
AcDbEntity
  8
tree v4_Sketch1
100
AcDbSpline
210
0.0
220
0.0
230
1.0
 70
    12
 71
     5
 72
    18
 73
    12
 74
     0
 42
0.000000001
 43
0.0000000001
 40
0.3170144806885892
 40
0.3170144806885892
 40
0.3170144806885892
 40
0.3170144806885892
 40
0.3170144806885892
 40
0.3170144806885892
 40
0.4
 40
0.5
 40
0.6
 40
0.7
 40
0.8
 40
0.9
 40
1.0
 40
1.0
 40
1.0
 40
1.0
 40
1.0
 40
1.0
 10
0.0110103404227781
 20
9.076231205542748
 30
0.0
 41
1.0
 10
-0.0291572239146258
 20
9.00987435890735
 30
0.0
 41
1.0
 10
-0.1206385372077059
 20
8.865705931658688
 30
0.0
 41
1.0
 10
-0.2722485568568056
 20
8.650238386998921
 30
0.0
 41
1.0
 10
-0.4995648295415289
 20
8.374980368126601
 30
0.0
 41
1.0
 10
-0.8251227709881613
 20
8.056580970323404
 30
0.0
 41
1.0
 10
-1.202177535297325
 20
7.756537764995227
 30
0.0
 41
1.0
 10
-1.616089909275253
 20
7.483724847435937
 30
0.0
 41
1.0
 10
-1.974212157085177
 20
7.285416376881016
 30
0.0
 41
1.0
 10
-2.257010816409092
 20
7.147181091921513
 30
0.0
 41
1.0
 10
-2.451754062764282
 20
7.059612760097087
 30
0.0
 41
1.0
 10
-2.550678458413552
 20
7.01697577767349
 30
0.0
 41
1.0
  0
LINE
  5
A4
330
70
100
AcDbEntity
  8
tree v4_Sketch1
100
AcDbLine
 10
0.2132584227575165
 20
3.44349586484991
 30
0.0
 11
0.3867427095589597
 21
3.439785314708717
 31
0.0
  0
LINE
  5
A5
330
70
100
AcDbEntity
  8
tree v4_Sketch1
100
AcDbLine
 10
-1.113009223680479
 20
4.758738001765956
 30
0.0
 11
-0.640325391741653
 21
4.714670748914412
 31
0.0
  0
LINE
  5
A6
330
70
100
AcDbEntity
  8
tree v4_Sketch1
100
AcDbLine
 10
-0.5034673661761
 20
5.290871594992742
 30
0.0
 11
0.0352896355040577
 21
5.141070257863232
 31
0.0
  0
SPLINE
  5
A7
330
70
100
AcDbEntity
  8
tree v4_Sketch1
100
AcDbSpline
210
0.0
220
0.0
230
1.0
 70
     8
 71
     3
 72
    11
 73
     7
 74
     0
 42
0.000000001
 43
0.0000000001
 40
0.529857440573427
 40
0.529857440573427
 40
0.529857440573427
 40
0.529857440573427
 40
0.6844686066199543
 40
0.6844686066199543
 40
0.6844686066199543
 40
0.8547627162138294
 40
0.8547627162138294
 40
0.8547627162138294
 40
0.8547627162138294
 10
2.293457688344455
 20
8.961009945325175
 30
0.0
 10
2.212448880638531
 20
9.0716625642003
 30
0.0
 10
2.072764507629788
 20
9.224823184256745
 30
0.0
 10
1.889611221967731
 20
9.399216958497861
 30
0.0
 10
1.687879830254233
 20
9.591300320020204
 30
0.0
 10
1.434057960515086
 20
9.810843895399619
 30
0.0
 10
1.136704665170613
 20
10.0521794832363
 30
0.0
  0
ARC
  5
A8
330
70
100
AcDbEntity
  8
tree v4_Sketch1
100
AcDbCircle
 10
14.0
 20
5.000000000000001
 30
0.0
 40
0.9999999999999982
100
AcDbArc
 50
359.9999999999999
 51
90.0
  0
SPLINE
  5
A9
330
70
100
AcDbEntity
  8
tree v4_Sketch1
100
AcDbSpline
210
0.0
220
0.0
230
1.0
 70
     8
 71
     3
 72
    11
 73
     7
 74
     0
 42
0.000000001
 43
0.0000000001
 40
0.7330290753603385
 40
0.7330290753603385
 40
0.7330290753603385
 40
0.7330290753603385
 40
0.9426292036268515
 40
0.9426292036268515
 40
0.9426292036268515
 40
1.0
 40
1.0
 40
1.0
 40
1.0
 10
-1.704527553381495
 20
9.570105691091674
 30
0.0
 10
-1.420525810327895
 20
9.825232667919733
 30
0.0
 10
-1.061309594432971
 20
10.11951054126003
 30
0.0
 10
-0.6428377500856687
 20
10.44237062433935
 30
0.0
 10
-0.5282955350188058
 20
10.53074242180223
 30
0.0
 10
-0.4091507745296032
 20
10.62137581156675
 30
0.0
 10
-0.285465971726009
 20
10.71422822490605
 30
0.0
  0
SPLINE
  5
AA
330
70
100
AcDbEntity
  8
tree v4_Sketch1
100
AcDbSpline
210
0.0
220
0.0
230
1.0
 70
     8
 71
     3
 72
    14
 73
    10
 74
     0
 42
0.000000001
 43
0.0000000001
 40
-0.1655376046204468
 40
-0.1655376046204468
 40
-0.1655376046204468
 40
-0.1655376046204468
 40
0.0
 40
0.0
 40
0.0
 40
0.1274619928467442
 40
0.1274619928467442
 40
0.1274619928467442
 40
0.1297868059603741
 40
0.1297868059603741
 40
0.1297868059603741
 40
0.1297868059603741
 10
0.9798787939551463
 20
9.103302184866876
 30
0.0
 10
1.256197624589849
 20
9.06669315416852
 30
0.0
 10
1.532516455224553
 20
9.030084123470166
 30
0.0
 10
1.808835285859257
 20
8.993475092771808
 30
0.0
 10
2.008758189784649
 20
8.966987633664162
 30
0.0
 10
2.171891357203508
 20
8.957094057677876
 30
0.0
 10
2.287197752961938
 20
8.96079487154337
 30
0.0
 10
2.289300856914399
 20
8.960862371669591
 30
0.0
 10
2.291386815580975
 20
8.960934058177418
 30
0.0
 10
2.293457688344458
 20
8.961009945325178
 30
0.0
  0
LINE
  5
AB
330
70
100
AcDbEntity
  8
tree v4_Sketch1
100
AcDbLine
 10
8.99
 20
3.294374354466031
 30
0.0
 11
12.0
 21
3.294374354466031
 31
0.0
  0
ARC
  5
AC
330
70
100
AcDbEntity
  8
tree v4_Sketch1
100
AcDbCircle
 10
14.0
 20
0.9999999999999992
 30
0.0
 40
1.0
100
AcDbArc
 50
270.0
 51
0.0000000000000445
  0
LINE
  5
AD
330
70
100
AcDbEntity
  8
tree v4_Sketch1
100
AcDbLine
 10
12.0
 20
3.049374354466031
 30
0.0
 11
8.99
 21
3.049374354466031
 31
0.0
  0
SPLINE
  5
AE
330
70
100
AcDbEntity
  8
tree v4_Sketch1
100
AcDbSpline
210
0.0
220
0.0
230
1.0
 70
    12
 71
     5
 72
    18
 73
    12
 74
     0
 42
0.000000001
 43
0.0000000001
 40
0.0
 40
0.0
 40
0.0
 40
0.0
 40
0.0
 40
0.0
 40
0.1
 40
0.2
 40
0.3
 40
0.4
 40
0.5
 40
0.6
 40
0.6515814180831598
 40
0.6515814180831598
 40
0.6515814180831598
 40
0.6515814180831598
 40
0.6515814180831598
 40
0.6515814180831598
 10
-0.8429292911582257
 20
7.278074600224653
 30
0.0
 41
1.0
 10
-0.7898059844521021
 20
7.316735232766542
 30
0.0
 41
1.0
 10
-0.6847620637621422
 20
7.395551702234939
 30
0.0
 41
1.0
 10
-0.5308042637208287
 20
7.518262023105715
 30
0.0
 41
1.0
 10
-0.3328620522304752
 20
7.690994578700901
 30
0.0
 41
1.0
 10
-0.0984700526740701
 20
7.923116518007591
 30
0.0
 41
1.0
 10
0.1217949399381803
 20
8.172801349585721
 30
0.0
 41
1.0
 10
0.3070329345332152
 20
8.415335911813588
 30
0.0
 41
1.0
 10
0.4416591282895351
 20
8.616087502335746
 30
0.0
 41
1.0
 10
0.5333050312172953
 20
8.765568521359758
 30
0.0
 41
1.0
 10
0.5868857392336008
 20
8.857668453019742
 30
0.0
 41
1.0
 10
0.6049316975085148
 20
8.889241412551847
 30
0.0
 41
1.0
  0
LINE
  5
AF
330
70
100
AcDbEntity
  8
tree v4_Sketch1
100
AcDbLine
 10
-0.5173129450204435
 20
4.534194265692565
 30
0.0
 11
-0.1282210847095863
 21
4.804792587380315
 31
0.0
  0
LINE
  5
B0
330
70
100
AcDbEntity
  8
tree v4_Sketch1
100
AcDbLine
 10
0.4869504174914106
 20
8.682822993381273
 30
0.0
 11
0.7229129775256176
 21
9.095659831722416
 31
0.0
  0
SPLINE
  5
B1
330
70
100
AcDbEntity
  8
tree v4_Sketch1
100
AcDbSpline
210
0.0
220
0.0
230
1.0
 70
    12
 71
     5
 72
    14
 73
     8
 74
     0
 42
0.000000001
 43
0.0000000001
 40
0.7571338723026688
 40
0.7571338723026688
 40
0.7571338723026688
 40
0.7571338723026688
 40
0.7571338723026688
 40
0.7571338723026688
 40
0.8
 40
0.9
 40
1.0
 40
1.0
 40
1.0
 40
1.0
 40
1.0
 40
1.0
 10
0.7819737615308967
 20
9.221729875453377
 30
0.0
 41
1.0
 10
0.7957551297541612
 20
9.249479351776905
 30
0.0
 41
1.0
 10
0.841293699070081
 20
9.342452101447792
 30
0.0
 41
1.0
 10
0.9165104913127361
 20
9.503232739146916
 30
0.0
 41
1.0
 10
0.9881418049810875
 20
9.668470893866961
 30
0.0
 41
1.0
 10
1.05637832576803
 20
9.837929502492078
 30
0.0
 41
1.0
 10
1.110306637840623
 20
9.980293610247276
 30
0.0
 41
1.0
 10
1.136704665170613
 20
10.0521794832363
 30
0.0
 41
1.0
  0
ARC
  5
B2
330
70
100
AcDbEntity
  8
tree v4_Sketch1
100
AcDbCircle
 10
6.999999999999999
 20
0.9999999999999989
 30
0.0
 40
0.9999999999999991
100
AcDbArc
 50
180.0
 51
270.0000000000001
  0
SPLINE
  5
B3
330
70
100
AcDbEntity
  8
tree v4_Sketch1
100
AcDbSpline
210
0.0
220
0.0
230
1.0
 70
    12
 71
     5
 72
    16
 73
    10
 74
     0
 42
0.000000001
 43
0.0000000001
 40
0.0
 40
0.0
 40
0.0
 40
0.0
 40
0.0
 40
0.0
 40
0.1
 40
0.2
 40
0.3
 40
0.4
 40
0.4300863990106267
 40
0.4300863990106267
 40
0.4300863990106267
 40
0.4300863990106267
 40
0.4300863990106267
 40
0.4300863990106267
 10
-2.621420495031804
 20
5.433209999047263
 30
0.0
 41
1.0
 10
-2.521111975528374
 20
5.445419256349999
 30
0.0
 41
1.0
 10
-2.318134573162746
 20
5.464919611071507
 30
0.0
 41
1.0
 10
-2.006587133379903
 20
5.479415150595651
 30
0.0
 41
1.0
 10
-1.57679699406043
 20
5.46875147851189
 30
0.0
 41
1.0
 10
-1.092781221503413
 20
5.411656940706497
 30
0.0
 41
1.0
 10
-0.7064934542919252
 20
5.336976269551804
 30
0.0
 41
1.0
 10
-0.429778611418041
 20
5.269390074155571
 30
0.0
 41
1.0
 10
-0.2709499027140007
 20
5.226220134635353
 30
0.0
 41
1.0
 10
-0.234088865309317
 20
5.215970926413355
 30
0.0
 41
1.0
  0
SPLINE
  5
B4
330
70
100
AcDbEntity
  8
tree v4_Sketch1
100
AcDbSpline
210
0.0
220
0.0
230
1.0
 70
     8
 71
     3
 72
    11
 73
     7
 74
     0
 42
0.000000001
 43
0.0000000001
 40
0.9507317204095842
 40
0.9507317204095842
 40
0.9507317204095842
 40
0.9507317204095842
 40
1.0
 40
1.0
 40
1.0
 40
1.111850436256698
 40
1.111850436256698
 40
1.111850436256698
 40
1.111850436256698
 10
-2.621420495024163
 20
5.433209999053609
 30
0.0
 10
-2.495930075134032
 20
5.537410577847674
 30
0.0
 10
-2.363510992745407
 20
5.644500916285929
 30
0.0
 10
-2.224278211393257
 20
5.754385672835904
 30
0.0
 10
-1.90332800297832
 20
6.00768475351102
 30
0.0
 10
-1.582377794563383
 20
6.260983834186134
 30
0.0
 10
-1.261427586148447
 20
6.514282914861249
 30
0.0
  0
LINE
  5
B5
330
70
100
AcDbEntity
  8
tree v4_Sketch1
100
AcDbLine
 10
8.99
 20
3.049374354466031
 30
0.0
 11
8.99
 21
3.294374354466031
 31
0.0
  0
SPLINE
  5
B6
330
70
100
AcDbEntity
  8
tree v4_Sketch1
100
AcDbSpline
210
0.0
220
0.0
230
1.0
 70
     8
 71
     3
 72
     8
 73
     4
 74
     0
 42
0.000000001
 43
0.0000000001
 40
0.9497673076250764
 40
0.9497673076250764
 40
0.9497673076250764
 40
0.9497673076250764
 40
1.0
 40
1.0
 40
1.0
 40
1.0
 10
0.5998699178812742
 20
10.475461367351
 30
0.0
 10
0.4985771482710288
 20
10.55333007927647
 30
0.0
 10
0.3937618477371432
 20
10.63292855660084
 30
0.0
 10
0.2854659717260089
 20
10.71422822490605
 30
0.0
  0
SPLINE
  5
B7
330
70
100
AcDbEntity
  8
tree v4_Sketch1
100
AcDbSpline
210
0.0
220
0.0
230
1.0
 70
     8
 71
     3
 72
    11
 73
     7
 74
     0
 42
0.000000001
 43
0.0000000001
 40
-0.0363292439225708
 40
-0.0363292439225708
 40
-0.0363292439225708
 40
-0.0363292439225708
 40
0.0
 40
0.0
 40
0.0
 40
0.1335315534438727
 40
0.1335315534438727
 40
0.1335315534438727
 40
0.1335315534438727
 10
1.150476318880789
 20
3.413532657439452
 30
0.0
 10
1.278823948175476
 20
3.403551603367352
 30
0.0
 10
1.407171577470164
 20
3.393570549295252
 30
0.0
 10
1.535519206764853
 20
3.383589495223152
 30
0.0
 10
1.999204195218942
 20
3.347530668366636
 30
0.0
 10
2.411988682236988
 20
3.331440128993123
 30
0.0
 10
2.767027734792559
 20
3.335265459463031
 30
0.0
  0
LINE
  5
B8
330
70
100
AcDbEntity
  8
tree v4_Sketch1
100
AcDbLine
 10
0.2630062046236545
 20
9.547670943985732
 30
0.0
 11
0.1651974628170808
 21
9.34867069806754
 31
0.0
  0
LINE
  5
B9
330
70
100
AcDbEntity
  8
tree v4_Sketch1
100
AcDbLine
 10
0.7607171076810309
 20
9.233158070702716
 30
0.0
 11
0.803230418019247
 21
9.210301685506633
 31
0.0
  0
SPLINE
  5
BA
330
70
100
AcDbEntity
  8
tree v4_Sketch1
100
AcDbSpline
210
0.0
220
0.0
230
1.0
 70
    12
 71
     5
 72
    15
 73
     9
 74
     0
 42
0.000000001
 43
0.0000000001
 40
0.0
 40
0.0
 40
0.0
 40
0.0
 40
0.0
 40
0.0
 40
0.1
 40
0.2
 40
0.3
 40
0.3598811122500964
 40
0.3598811122500964
 40
0.3598811122500964
 40
0.3598811122500964
 40
0.3598811122500964
 40
0.3598811122500964
 10
-0.5998699178874682
 20
9.153648940377953
 30
0.0
 41
1.0
 10
-0.5676596830527844
 20
9.152947687057677
 30
0.0
 41
1.0
 10
-0.5027765104988324
 20
9.150586871606423
 30
0.0
 41
1.0
 10
-0.4040635970001004
 20
9.144170626697246
 30
0.0
 41
1.0
 10
-0.2831086312066362
 20
9.131215977589651
 30
0.0
 41
1.0
 10
-0.1589125482489
 20
9.111548616634678
 30
0.0
 41
1.0
 10
-0.0674245253158476
 20
9.093613559986682
 30
0.0
 41
1.0
 10
-0.0104345578913063
 20
9.081118086118564
 30
0.0
 41
1.0
 10
0.0110101982290581
 20
9.076230970412261
 30
0.0
 41
1.0
  0
LINE
  5
BB
330
70
100
AcDbEntity
  8
tree v4_Sketch1
100
AcDbLine
 10
0.0940310948201352
 20
4.959360371769752
 30
0.0
 11
0.4027840267086411
 21
5.174086079777369
 31
0.0
  0
LINE
  5
BC
330
70
100
AcDbEntity
  8
tree v4_Sketch1
100
AcDbLine
 10
14.0
 20
-0.0000000000000008
 30
0.0
 11
7.0
 21
0.0
 31
0.0
  0
ARC
  5
BD
330
70
100
AcDbEntity
  8
tree v4_Sketch1
100
AcDbCircle
 10
6.999999999999998
 20
5.000000000000001
 30
0.0
 40
0.9999999999999982
100
AcDbArc
 50
89.99999999999991
 51
180.0000000000001
  0
LINE
  5
BE
330
70
100
AcDbEntity
  8
tree v4_Sketch1
100
AcDbLine
 10
-0.05500368581593
 20
9.091275090650308
 30
0.0
 11
0.0770240822740461
 21
9.061186850174214
 31
0.0
  0
SPLINE
  5
BF
330
70
100
AcDbEntity
  8
tree v4_Sketch1
100
AcDbSpline
210
0.0
220
0.0
230
1.0
 70
     8
 71
     3
 72
    14
 73
    10
 74
     0
 42
0.000000001
 43
0.0000000001
 40
0.5349693620742508
 40
0.5349693620742508
 40
0.5349693620742508
 40
0.5349693620742508
 40
0.5878046819480423
 40
0.5878046819480423
 40
0.5878046819480423
 40
0.7135681937405707
 40
0.7135681937405707
 40
0.7135681937405707
 40
0.8338324897602198
 40
0.8338324897602198
 40
0.8338324897602198
 40
0.8338324897602198
 10
-4.169902604931627
 20
3.65234901829673
 30
0.0
 10
-4.170550876546069
 20
3.669466702537944
 30
0.0
 10
-4.168351381580411
 20
3.695103789706454
 30
0.0
 10
-4.158147356844946
 20
3.733124312154658
 30
0.0
 10
-4.133858794038564
 20
3.823624273822241
 30
0.0
 10
-4.059004068872814
 20
3.973463599894026
 30
0.0
 10
-3.925231024010497
 20
4.152750965005335
 30
0.0
 10
-3.797307424888106
 20
4.324198696092073
 30
0.0
 10
-3.618972633301505
 20
4.522431781275028
 30
0.0
 10
-3.395609370358473
 20
4.741369684409364
 30
0.0
  0
SPLINE
  5
C0
330
70
100
AcDbEntity
  8
tree v4_Sketch1
100
AcDbSpline
210
0.0
220
0.0
230
1.0
 70
    12
 71
     5
 72
    12
 73
     6
 74
     0
 42
0.000000001
 43
0.0000000001
 40
0.0
 40
0.0
 40
0.0
 40
0.0
 40
0.0
 40
0.0
 40
0.0763894500596284
 40
0.0763894500596284
 40
0.0763894500596284
 40
0.0763894500596284
 40
0.0763894500596284
 40
0.0763894500596284
 10
-2.977966370856421
 20
7.0
 30
0.0
 41
1.0
 10
-2.891090557769429
 20
7.001957363446269
 30
0.0
 41
1.0
 10
-2.804922171700307
 20
7.004631911369147
 30
0.0
 41
1.0
 10
-2.719461176747325
 20
7.008023607371713
 30
0.0
 41
1.0
 10
-2.634711019180197
 20
7.01213594525768
 30
0.0
 41
1.0
 10
-2.550678458413553
 20
7.01697577767349
 30
0.0
 41
1.0
  0
SPLINE
  5
C1
330
70
100
AcDbEntity
  8
tree v4_Sketch1
100
AcDbSpline
210
0.0
220
0.0
230
1.0
 70
    24
 71
     3
 72
     8
 73
     4
 74
     0
 42
0.000000001
 43
0.0000000001
 40
-0.2094637368650516
 40
-0.2094637368650516
 40
-0.2094637368650516
 40
-0.2094637368650516
 40
-0.0639127433625756
 40
-0.0639127433625756
 40
-0.0639127433625756
 40
-0.0639127433625756
 10
-1.261427586148442
 20
6.514282914861253
 30
0.0
 10
-1.544083708205232
 20
6.485588517386878
 30
0.0
 10
-1.826739830262022
 20
6.456894119912504
 30
0.0
 10
-2.109395952318811
 20
6.428199722438131
 30
0.0
  0
SPLINE
  5
C2
330
70
100
AcDbEntity
  8
tree v4_Sketch1
100
AcDbSpline
210
0.0
220
0.0
230
1.0
 70
     8
 71
     3
 72
    14
 73
    10
 74
     0
 42
0.000000001
 43
0.0000000001
 40
0.7025374366568519
 40
0.7025374366568519
 40
0.7025374366568519
 40
0.7025374366568519
 40
0.9348769522160303
 40
0.9348769522160303
 40
0.9348769522160303
 40
1.0
 40
1.0
 40
1.0
 40
1.145499722085031
 40
1.145499722085031
 40
1.145499722085031
 40
1.145499722085031
 10
-2.977966370848066
 20
6.999999999999276
 30
0.0
 10
-2.724984307703091
 20
7.288937713242784
 30
0.0
 10
-2.365263849400798
 20
7.638375948347284
 30
0.0
 10
-1.923013939756069
 20
8.028351736022003
 30
0.0
 10
-1.799054561047137
 20
8.137659064972094
 30
0.0
 10
-1.668413333341709
 20
8.250353013834946
 30
0.0
 10
-1.531210118835029
 20
8.366338104361011
 30
0.0
 10
-1.220763385185843
 20
8.628775049699992
 30
0.0
 10
-0.9103166515366588
 20
8.891211995038972
 30
0.0
 10
-0.5998699178874733
 20
9.15364894037795
 30
0.0
  0
SPLINE
  5
C3
330
70
100
AcDbEntity
  8
tree v4_Sketch1
100
AcDbSpline
210
0.0
220
0.0
230
1.0
 70
    28
 71
     5
 72
    13
 73
     7
 74
     0
 42
0.000000001
 43
0.0000000001
 40
0.6208663735584633
 40
0.6208663735584633
 40
0.6208663735584633
 40
0.6208663735584633
 40
0.6208663735584633
 40
0.6208663735584633
 40
0.8
 40
1.0
 40
1.0
 40
1.0
 40
1.0
 40
1.0
 40
1.0
 10
0.2484075607643881
 20
5.066723225773561
 30
0.0
 41
1.0
 10
0.3914272146324926
 20
5.16618785675858
 30
0.0
 41
1.0
 10
0.6941261612265311
 20
5.376703252427906
 30
0.0
 41
1.0
 10
0.9968251078205241
 20
5.587218648097242
 30
0.0
 41
1.0
 10
1.299524054414487
 20
5.797734043766573
 30
0.0
 41
1.0
 10
1.602223001008422
 20
6.008249439435881
 30
0.0
 41
1.0
 10
1.761902293734307
 20
6.119300204120172
 30
0.0
 41
1.0
  0
LINE
  5
C4
330
70
100
AcDbEntity
  8
tree v4_Sketch1
100
AcDbLine
 10
-0.4672094608036793
 20
5.014452890270856
 30
0.0
 11
-0.0009682698683628
 21
5.417488962585117
 31
0.0
  0
SPLINE
  5
C5
330
70
100
AcDbEntity
  8
tree v4_Sketch1
100
AcDbSpline
210
0.0
220
0.0
230
1.0
 70
    12
 71
     5
 72
    16
 73
    10
 74
     0
 42
0.000000001
 43
0.0000000001
 40
0.5464301007840713
 40
0.5464301007840713
 40
0.5464301007840713
 40
0.5464301007840713
 40
0.5464301007840713
 40
0.5464301007840713
 40
0.6
 40
0.7
 40
0.8
 40
0.9
 40
0.9362005170276972
 40
0.9362005170276972
 40
0.9362005170276972
 40
0.9362005170276972
 40
0.9362005170276972
 40
0.9362005170276972
 10
-0.2340888653360211
 20
5.215970926427987
 30
0.0
 41
1.0
 10
-0.173556597200775
 20
5.268297250381822
 30
0.0
 41
1.0
 10
-0.0025184201546396
 20
5.421546074940707
 30
0.0
 41
1.0
 10
0.268171555238398
 20
5.689852834648574
 30
0.0
 41
1.0
 10
0.6192876031198449
 20
6.098255416104019
 30
0.0
 41
1.0
 10
0.968491948706305
 20
6.597779394442614
 30
0.0
 41
1.0
 10
1.24119242613822
 20
7.065777049462156
 30
0.0
 41
1.0
 10
1.41941231732899
 20
7.411982239607387
 30
0.0
 41
1.0
 10
1.517810653238519
 20
7.617304338209335
 30
0.0
 41
1.0
 10
1.54365628803226
 20
7.672277031869611
 30
0.0
 41
1.0
  0
SPLINE
  5
C6
330
70
100
AcDbEntity
  8
tree v4_Sketch1
100
AcDbSpline
210
0.0
220
0.0
230
1.0
 70
    12
 71
     5
 72
    16
 73
    10
 74
     0
 42
0.000000001
 43
0.0000000001
 40
0.0
 40
0.0
 40
0.0
 40
0.0
 40
0.0
 40
0.0
 40
0.1
 40
0.2
 40
0.3
 40
0.4
 40
0.4293187906879094
 40
0.4293187906879094
 40
0.4293187906879094
 40
0.4293187906879094
 40
0.4293187906879094
 40
0.4293187906879094
 10
3.898815379805262
 20
4.187604291997507
 30
0.0
 41
1.0
 10
3.80970415960442
 20
4.202243603731171
 30
0.0
 41
1.0
 10
3.632934367126431
 20
4.22901633814783
 30
0.0
 41
1.0
 10
3.37213734333828
 20
4.26165825363741
 30
0.0
 41
1.0
 10
3.033269102290373
 20
4.289894933287637
 30
0.0
 41
1.0
 10
2.683137299624799
 20
4.296784672620209
 30
0.0
 41
1.0
 10
2.423974045892323
 20
4.285831116887074
 30
0.0
 41
1.0
 10
2.248403402062832
 20
4.269758123365325
 30
0.0
 41
1.0
 10
2.151002247887217
 20
4.257920840974481
 30
0.0
 41
1.0
 10
2.129002916989285
 20
4.255093630215464
 30
0.0
 41
1.0
  0
LINE
  5
C7
330
70
100
AcDbEntity
  8
tree v4_Sketch1
100
AcDbLine
 10
2.292770330958506
 20
4.276139951892172
 30
0.0
 11
1.965235503020064
 21
4.234047308538755
 31
0.0
  0
SPLINE
  5
C8
330
70
100
AcDbEntity
  8
tree v4_Sketch1
100
AcDbSpline
210
0.0
220
0.0
230
1.0
 70
    12
 71
     5
 72
    15
 73
     9
 74
     0
 42
0.000000001
 43
0.0000000001
 40
0.0
 40
0.0
 40
0.0
 40
0.0
 40
0.0
 40
0.0
 40
0.1
 40
0.2
 40
0.3
 40
0.3375590535080638
 40
0.3375590535080638
 40
0.3375590535080638
 40
0.3375590535080638
 40
0.3375590535080638
 40
0.3375590535080638
 10
-3.395609370358473
 20
4.741369684409364
 30
0.0
 41
1.0
 10
-3.235544080149274
 20
4.752685833064061
 30
0.0
 41
1.0
 10
-2.918479957688229
 20
4.772032954799276
 30
0.0
 41
1.0
 10
-2.452082545921025
 20
4.791198755561677
 30
0.0
 41
1.0
 10
-1.943079104420815
 20
4.795852688917759
 30
0.0
 41
1.0
 10
-1.453118357805871
 20
4.780105691630828
 30
0.0
 41
1.0
 10
-1.118503795095462
 20
4.758098246102314
 30
0.0
 41
1.0
 10
-0.9283238466900755
 20
4.741520198541258
 30
0.0
 41
1.0
 10
-0.8766673077110663
 20
4.736704375340184
 30
0.0
 41
1.0
  0
LINE
  5
C9
330
70
100
AcDbEntity
  8
tree v4_Sketch1
100
AcDbLine
 10
1.395686899196874
 20
7.357551704035298
 30
0.0
 11
1.691625676867645
 21
7.987002359703923
 31
0.0
  0
SPLINE
  5
CA
330
70
100
AcDbEntity
  8
tree v4_Sketch1
100
AcDbSpline
210
0.0
220
0.0
230
1.0
 70
    12
 71
     5
 72
    15
 73
     9
 74
     0
 42
0.000000001
 43
0.0000000001
 40
0.6759217738312366
 40
0.6759217738312366
 40
0.6759217738312366
 40
0.6759217738312366
 40
0.6759217738312366
 40
0.6759217738312366
 40
0.7
 40
0.8
 40
0.9
 40
1.0
 40
1.0
 40
1.0
 40
1.0
 40
1.0
 40
1.0
 10
0.6049316989372653
 20
8.889241411175239
 30
0.0
 41
1.0
 10
0.6143910899564207
 20
8.885543932483773
 30
0.0
 41
1.0
 10
0.6632107983585885
 20
8.866336589304552
 30
0.0
 41
1.0
 10
0.7520620812704295
 20
8.830229133942353
 30
0.0
 41
1.0
 10
0.8822860868694089
 20
8.774443900300703
 30
0.0
 41
1.0
 10
1.014825129788125
 20
8.713863968516466
 30
0.0
 41
1.0
 10
1.139368614508404
 20
8.653949755871739
 30
0.0
 41
1.0
 10
1.223207064311758
 20
8.612330466342889
 30
0.0
 41
1.0
 10
1.265328667654924
 20
8.591101673459638
 30
0.0
 41
1.0
  0
SPLINE
  5
CB
330
70
100
AcDbEntity
  8
tree v4_Sketch1
100
AcDbSpline
210
0.0
220
0.0
230
1.0
 70
    12
 71
     5
 72
    16
 73
    10
 74
     0
 42
0.000000001
 43
0.0000000001
 40
0.5966076318972019
 40
0.5966076318972019
 40
0.5966076318972019
 40
0.5966076318972019
 40
0.5966076318972019
 40
0.5966076318972019
 40
0.6
 40
0.7
 40
0.8
 40
0.9
 40
1.0
 40
1.0
 40
1.0
 40
1.0
 40
1.0
 40
1.0
 10
1.529140311742615
 20
4.126543423036634
 30
0.0
 41
1.0
 10
1.526821147724209
 20
4.125825924172444
 30
0.0
 41
1.0
 10
1.456172768452629
 20
4.103897757288929
 30
0.0
 41
1.0
 10
1.319288444642861
 20
4.057147927540183
 30
0.0
 41
1.0
 10
1.12117289267519
 20
3.97694305324024
 30
0.0
 41
1.0
 10
0.8692678945224944
 20
3.850445694799216
 30
0.0
 41
1.0
 10
0.6334196692273805
 20
3.700967784913133
 30
0.0
 41
1.0
 10
0.4638938426298469
 20
3.576162400218781
 30
0.0
 41
1.0
 10
0.3540952348049506
 20
3.487406550171806
 30
0.0
 41
1.0
 10
0.3000005661559363
 20
3.441640589779361
 30
0.0
 41
1.0
  0
SPLINE
  5
CC
330
70
100
AcDbEntity
  8
tree v4_Sketch1
100
AcDbSpline
210
0.0
220
0.0
230
1.0
 70
     8
 71
     3
 72
    11
 73
     7
 74
     0
 42
0.000000001
 43
0.0000000001
 40
-0.0363292439225708
 40
-0.0363292439225708
 40
-0.0363292439225708
 40
-0.0363292439225708
 40
0.0
 40
0.0
 40
0.0
 40
0.0709043085623908
 40
0.0709043085623908
 40
0.0709043085623908
 40
0.0709043085623908
 10
-1.150476318880789
 20
3.413532657439452
 30
0.0
 10
-1.278823948175476
 20
3.403551603367352
 30
0.0
 10
-1.407171577470164
 20
3.393570549295252
 30
0.0
 10
-1.535519206764853
 20
3.383589495223152
 30
0.0
 10
-1.781732649574208
 20
3.364442513705358
 30
0.0
 10
-2.013594519183997
 20
3.350925660209826
 30
0.0
 10
-2.230080024417018
 20
3.343031087014109
 30
0.0
  0
SPLINE
  5
CD
330
70
100
AcDbEntity
  8
tree v4_Sketch1
100
AcDbSpline
210
0.0
220
0.0
230
1.0
 70
    12
 71
     5
 72
    21
 73
    15
 74
     0
 42
0.000000001
 43
0.0000000001
 40
0.0
 40
0.0
 40
0.0
 40
0.0
 40
0.0
 40
0.0
 40
0.1
 40
0.2
 40
0.3
 40
0.4
 40
0.5
 40
0.6
 40
0.7
 40
0.8
 40
0.9
 40
1.0
 40
1.0
 40
1.0
 40
1.0
 40
1.0
 40
1.0
 10
1.543656320687338
 20
7.672277101325734
 30
0.0
 41
1.0
 10
1.483822134961516
 20
7.640520758092091
 30
0.0
 41
1.0
 10
1.362964819608315
 20
7.577626037371664
 30
0.0
 41
1.0
 10
1.178111944937737
 20
7.485137889881635
 30
0.0
 41
1.0
 10
0.9243908848160003
 20
7.365588912865474
 30
0.0
 41
1.0
 10
0.5943659006440324
 20
7.222843907471352
 30
0.0
 41
1.0
 10
0.2504370121356069
 20
7.087325598487413
 30
0.0
 41
1.0
 10
-0.1083428087279547
 20
6.95952621340662
 30
0.0
 41
1.0
 10
-0.4821431746892523
 20
6.839533910185243
 30
0.0
 41
1.0
 10
-0.8700314629425438
 20
6.726863948586032
 30
0.0
 41
1.0
 10
-1.27079197819831
 20
6.620884458554685
 30
0.0
 41
1.0
 10
-1.600781209246548
 20
6.540976643016535
 30
0.0
 41
1.0
 10
-1.853202953686534
 20
6.483608106301297
 30
0.0
 41
1.0
 10
-2.023639104062773
 20
6.446482491896134
 30
0.0
 41
1.0
 10
-2.109395960262251
 20
6.428199721631737
 30
0.0
 41
1.0
  0
LINE
  5
CE
330
70
100
AcDbEntity
  8
tree v4_Sketch1
100
AcDbLine
 10
0.0285083055209678
 20
9.49994014383528
 30
0.0
 11
0.3996953619211264
 21
9.39640149821732
 31
0.0
  0
LINE
  5
CF
330
70
100
AcDbEntity
  8
tree v4_Sketch1
100
AcDbLine
 10
-1.16428428848455
 20
4.552695481459407
 30
0.0
 11
-0.5890503222736895
 21
4.920713319247839
 31
0.0
  0
SPLINE
  5
D0
330
70
100
AcDbEntity
  8
tree v4_Sketch1
100
AcDbSpline
210
0.0
220
0.0
230
1.0
 70
     8
 71
     3
 72
    14
 73
    10
 74
     0
 42
0.000000001
 43
0.0000000001
 40
0.4880688918007367
 40
0.4880688918007367
 40
0.4880688918007367
 40
0.4880688918007367
 40
0.5291614481388613
 40
0.5291614481388613
 40
0.5291614481388613
 40
0.6876948259784906
 40
0.6876948259784906
 40
0.6876948259784906
 40
0.7459390129544526
 40
0.7459390129544526
 40
0.7459390129544526
 40
0.7459390129544526
 10
3.374213692352551
 20
6.4155800487954
 30
0.0
 10
3.3690472792618
 20
6.432798406235582
 30
0.0
 10
3.360422516615938
 20
6.455961562676018
 30
0.0
 10
3.34779082315191
 20
6.483272475237746
 30
0.0
 10
3.299058273728377
 20
6.588636843048483
 30
0.0
 10
3.188382896952252
 20
6.753548751359883
 30
0.0
 10
3.025137210589541
 20
6.945371058028404
 30
0.0
 10
2.965161750474464
 20
7.01584539250618
 30
0.0
 10
2.898381306746171
 20
7.090201923786904
 30
0.0
 10
2.82517726507036
 20
7.168126156930584
 30
0.0
  0
LINE
  5
D1
330
70
100
AcDbEntity
  8
tree v4_Sketch1
100
AcDbLine
 10
0.1494852820040114
 20
5.100282100782034
 30
0.0
 11
0.3473298388621678
 21
5.033164346793051
 31
0.0
  0
LINE
  5
D2
330
70
100
AcDbEntity
  8
tree v4_Sketch1
100
AcDbLine
 10
0.7417878960650156
 20
9.140813619228289
 30
0.0
 11
0.8221596269967776
 21
9.302646131678464
 31
0.0
  0
LINE
  5
D3
330
70
100
AcDbEntity
  8
tree v4_Sketch1
100
AcDbLine
 10
-0.4929604429132166
 20
3.444671535285478
 30
0.0
 11
-0.3434053764666372
 21
3.446787000068337
 31
0.0
  0
LINE
  5
D4
330
70
100
AcDbEntity
  8
tree v4_Sketch1
100
AcDbLine
 10
1.136695563781793
 20
4.723186679192466
 30
0.0
 11
1.346728696255391
 21
4.630718273554248
 31
0.0
  0
SPLINE
  5
D5
330
70
100
AcDbEntity
  8
tree v4_Sketch1
100
AcDbSpline
210
0.0
220
0.0
230
1.0
 70
     8
 71
     3
 72
    23
 73
    19
 74
     0
 42
0.000000001
 43
0.0000000001
 40
0.2687427426253675
 40
0.2687427426253675
 40
0.2687427426253675
 40
0.2687427426253675
 40
0.3375545121059374
 40
0.3375545121059374
 40
0.3375545121059374
 40
0.4279513658824366
 40
0.4279513658824366
 40
0.4279513658824366
 40
0.5059817704078192
 40
0.5059817704078192
 40
0.5059817704078192
 40
0.5878046819480423
 40
0.5878046819480423
 40
0.5878046819480423
 40
0.7135681937405707
 40
0.7135681937405707
 40
0.7135681937405707
 40
0.7216335621371494
 40
0.7216335621371494
 40
0.7216335621371494
 40
0.7216335621371494
 10
3.658986866554753
 20
3.407900416342204
 30
0.0
 10
3.776238648302024
 20
3.4299895417473
 30
0.0
 10
3.874507274184226
 20
3.456175873831651
 30
0.0
 10
3.951091529221947
 20
3.484631054537449
 30
0.0
 10
4.051698965369652
 20
3.522012142523746
 30
0.0
 10
4.112036501642348
 20
3.562556761529191
 30
0.0
 10
4.138840230187031
 20
3.588468621829461
 30
0.0
 10
4.16197716132737
 20
3.610835693876395
 30
0.0
 10
4.163835733020609
 20
3.618037505009262
 30
0.0
 10
4.167115623497156
 20
3.631229717580409
 30
0.0
 10
4.17055492629145
 20
3.645063110458407
 30
0.0
 10
4.17394972191586
 20
3.674244194604058
 30
0.0
 10
4.158147356844946
 20
3.733124312154658
 30
0.0
 10
4.133858794038564
 20
3.823624273822241
 30
0.0
 10
4.059004068872814
 20
3.973463599894026
 30
0.0
 10
3.925231024010497
 20
4.152750965005335
 30
0.0
 10
3.916651994425775
 20
4.164248883820294
 30
0.0
 10
3.907846238508986
 20
4.175867270824765
 30
0.0
 10
3.898815379805262
 20
4.187604291997507
 30
0.0
  0
SPLINE
  5
D6
330
70
100
AcDbEntity
  8
tree v4_Sketch1
100
AcDbSpline
210
0.0
220
0.0
230
1.0
 70
    12
 71
     5
 72
    13
 73
     7
 74
     0
 42
0.000000001
 43
0.0000000001
 40
0.420050833894811
 40
0.420050833894811
 40
0.420050833894811
 40
0.420050833894811
 40
0.420050833894811
 40
0.420050833894811
 40
0.5
 40
0.5856255082367987
 40
0.5856255082367987
 40
0.5856255082367987
 40
0.5856255082367987
 40
0.5856255082367987
 40
0.5856255082367987
 10
-0.3227670148584672
 20
4.669493426535443
 30
0.0
 41
1.0
 10
-0.218058761018389
 20
4.653618757400868
 30
0.0
 41
1.0
 10
-0.0039386949361254
 20
4.61781689656532
 30
0.0
 41
1.0
 10
0.2044031596411486
 20
4.575824688571531
 30
0.0
 41
1.0
 10
0.4067425537515586
 20
4.527401889717209
 30
0.0
 41
1.0
 10
0.6030320129075665
 20
4.472497639358127
 30
0.0
 41
1.0
 10
0.7029295969967255
 20
4.44237760941289
 30
0.0
 41
1.0
  0
SPLINE
  5
D7
330
70
100
AcDbEntity
  8
tree v4_Sketch1
100
AcDbSpline
210
0.0
220
0.0
230
1.0
 70
    12
 71
     5
 72
    21
 73
    15
 74
     0
 42
0.000000001
 43
0.0000000001
 40
0.0
 40
0.0
 40
0.0
 40
0.0
 40
0.0
 40
0.0
 40
0.0007895639241875
 40
0.0007895639241875
 40
0.0007895639241875
 40
0.0007895639241875
 40
0.0007895639241875
 40
0.1007895639241875
 40
0.2007895639241875
 40
0.3007895639241875
 40
0.4007895639241875
 40
0.4236347789267301
 40
0.4236347789267301
 40
0.4236347789267301
 40
0.4236347789267301
 40
0.4236347789267301
 40
0.4236347789267301
 10
-0.4181829097453086
 20
3.445729267676124
 30
0.0
 41
1.0
 10
-0.4180916402101999
 20
3.44585813318577
 30
0.0
 41
1.0
 10
-0.4180003706750912
 20
3.445986998695415
 30
0.0
 41
1.0
 10
-0.4179091011399824
 20
3.446115864205061
 30
0.0
 41
1.0
 10
-0.4178178316048737
 20
3.446244729714706
 30
0.0
 41
1.0
 10
-0.4177265620697649
 20
3.446373595224351
 30
0.0
 41
1.0
 10
-0.3767039327973649
 20
3.504292915680679
 30
0.0
 41
1.0
 10
-0.2919782319584732
 20
3.61771354223243
 30
0.0
 41
1.0
 10
-0.1568480743064377
 20
3.780590186831424
 30
0.0
 41
1.0
 10
0.0396708588987278
 20
3.983013947309932
 30
0.0
 41
1.0
 10
0.2719296572478178
 20
4.174882910655361
 30
0.0
 41
1.0
 10
0.4655169465053226
 20
4.306711619109306
 30
0.0
 41
1.0
 10
0.6072420195154017
 20
4.390399347431388
 30
0.0
 41
1.0
 10
0.6878526550987181
 20
4.434292480743442
 30
0.0
 41
1.0
 10
0.7029295969673997
 20
4.442377609315629
 30
0.0
 41
1.0
  0
LINE
  5
D8
330
70
100
AcDbEntity
  8
tree v4_Sketch1
100
AcDbLine
 10
0.5541241929049483
 20
4.362579541953507
 30
0.0
 11
0.8517350010884996
 21
4.522175676872273
 31
0.0
  0
SPLINE
  5
D9
330
70
100
AcDbEntity
  8
tree v4_Sketch1
100
AcDbSpline
210
0.0
220
0.0
230
1.0
 70
    12
 71
     5
 72
    14
 73
     8
 74
     0
 42
0.000000001
 43
0.0000000001
 40
0.788374912137679
 40
0.788374912137679
 40
0.788374912137679
 40
0.788374912137679
 40
0.788374912137679
 40
0.788374912137679
 40
0.8
 40
0.9
 40
1.0
 40
1.0
 40
1.0
 40
1.0
 40
1.0
 40
1.0
 10
2.129003433869686
 20
4.255093713385019
 30
0.0
 41
1.0
 10
2.145322236761043
 20
4.246807744602161
 30
0.0
 41
1.0
 10
2.302152773738589
 20
4.166961796318854
 30
0.0
 41
1.0
 10
2.601947896076132
 20
4.010444996647975
 30
0.0
 41
1.0
 10
2.906265659145739
 20
3.8445046181324
 30
0.0
 41
1.0
 10
3.214882364882791
 20
3.669606768180215
 30
0.0
 41
1.0
 10
3.510322568502258
 20
3.496447446953249
 30
0.0
 41
1.0
 10
3.658986866549641
 20
3.407900416341242
 30
0.0
 41
1.0
  0
SPLINE
  5
DA
330
70
100
AcDbEntity
  8
tree v4_Sketch1
100
AcDbSpline
210
0.0
220
0.0
230
1.0
 70
    12
 71
     5
 72
    13
 73
     7
 74
     0
 42
0.000000001
 43
0.0000000001
 40
0.0
 40
0.0
 40
0.0
 40
0.0
 40
0.0
 40
0.0
 40
0.2
 40
0.3185286570318107
 40
0.3185286570318107
 40
0.3185286570318107
 40
0.3185286570318107
 40
0.3185286570318107
 40
0.3185286570318107
 10
-1.150476318880789
 20
3.413532657439452
 30
0.0
 41
1.0
 10
-1.058577152873567
 20
3.420679268172658
 30
0.0
 41
1.0
 10
-0.912182271902704
 20
3.430400306020922
 30
0.0
 41
1.0
 10
-0.7657360086459353
 20
3.437478400808033
 30
0.0
 41
1.0
 10
-0.6192440075103553
 20
3.442203883069524
 30
0.0
 41
1.0
 10
-0.4727136790210967
 20
3.444957926893588
 30
0.0
 41
1.0
 10
-0.4181829096899269
 20
3.445729267676908
 30
0.0
 41
1.0
  0
SPLINE
  5
DB
330
70
100
AcDbEntity
  8
tree v4_Sketch1
100
AcDbSpline
210
0.0
220
0.0
230
1.0
 70
     8
 71
     3
 72
    14
 73
    10
 74
     0
 42
0.000000001
 43
0.0000000001
 40
0.8819291128771263
 40
0.8819291128771263
 40
0.8819291128771263
 40
0.8819291128771263
 40
0.921053413341292
 40
0.921053413341292
 40
0.921053413341292
 40
1.0
 40
1.0
 40
1.0
 40
1.053712327487563
 40
1.053712327487563
 40
1.053712327487563
 40
1.053712327487563
 10
3.106362936763694
 20
5.013591116273758
 30
0.0
 10
3.022261929711391
 20
5.089886993055598
 30
0.0
 10
2.93362326341648
 20
5.168116756882021
 30
0.0
 10
2.840632261806156
 20
5.248071058463834
 30
0.0
 10
2.652991279602947
 20
5.409406063145807
 30
0.0
 10
2.447382263942491
 20
5.578308356405086
 30
0.0
 10
2.224278211393257
 20
5.754385672835904
 30
0.0
 10
2.070152905506911
 20
5.876023849930684
 30
0.0
 10
1.916027599620565
 20
5.997662027025463
 30
0.0
 10
1.761902293734219
 20
6.119300204120243
 30
0.0
  0
SPLINE
  5
DC
330
70
100
AcDbEntity
  8
tree v4_Sketch1
100
AcDbSpline
210
0.0
220
0.0
230
1.0
 70
    12
 71
     5
 72
    13
 73
     7
 74
     0
 42
0.000000001
 43
0.0000000001
 40
0.5074859771525248
 40
0.5074859771525248
 40
0.5074859771525248
 40
0.5074859771525248
 40
0.5074859771525248
 40
0.5074859771525248
 40
0.6
 40
0.6593663866938055
 40
0.6593663866938055
 40
0.6593663866938055
 40
0.6593663866938055
 40
0.6593663866938055
 40
0.6593663866938055
 10
0.2484075604330896
 20
5.066723223787542
 30
0.0
 41
1.0
 10
0.3657294812624138
 20
5.026922362218311
 30
0.0
 41
1.0
 10
0.5602534617252681
 20
4.957588114445902
 30
0.0
 41
1.0
 10
0.7578645739192819
 20
4.881821379328895
 30
0.0
 41
1.0
 10
0.9584281560212588
 20
4.799902744334586
 30
0.0
 41
1.0
 10
1.161799022968128
 20
4.712134723628949
 30
0.0
 41
1.0
 10
1.241712130018593
 20
4.676952476373356
 30
0.0
 41
1.0
  0
LINE
  5
DD
330
70
100
AcDbEntity
  8
tree v4_Sketch1
100
AcDbLine
 10
1.976456266269467
 20
4.332550440882979
 30
0.0
 11
2.281550601469906
 21
4.177636985887058
 31
0.0
  0
LINE
  5
DE
330
70
100
AcDbEntity
  8
tree v4_Sketch1
100
AcDbLine
 10
1.385501468653193
 20
4.194158067879463
 30
0.0
 11
1.672779161453197
 21
4.058928792232675
 31
0.0
  0
SPLINE
  5
DF
330
70
100
AcDbEntity
  8
tree v4_Sketch1
100
AcDbSpline
210
0.0
220
0.0
230
1.0
 70
    12
 71
     5
 72
    14
 73
     8
 74
     0
 42
0.000000001
 43
0.0000000001
 40
0.7355918660600748
 40
0.7355918660600748
 40
0.7355918660600748
 40
0.7355918660600748
 40
0.7355918660600748
 40
0.7355918660600748
 40
0.8
 40
0.9
 40
1.0
 40
1.0
 40
1.0
 40
1.0
 40
1.0
 40
1.0
 10
1.529140315053195
 20
4.126543430056069
 30
0.0
 41
1.0
 10
1.596038093243758
 20
4.095052860778254
 30
0.0
 41
1.0
 10
1.764637364454869
 20
4.012351797482467
 30
0.0
 41
1.0
 10
2.027030617212465
 20
3.869968718981937
 30
0.0
 41
1.0
 10
2.275875260164878
 20
3.713070665018708
 30
0.0
 41
1.0
 10
2.51188788794246
 20
3.542425341920103
 30
0.0
 41
1.0
 10
2.683185110567664
 20
3.405608620676357
 30
0.0
 41
1.0
 10
2.767027734792559
 20
3.335265459463031
 30
0.0
 41
1.0
  0
LINE
  5
E0
330
70
100
AcDbEntity
  8
tree v4_Sketch1
100
AcDbLine
 10
0.6003880006339947
 20
4.473294833099913
 30
0.0
 11
0.8054711933594532
 21
4.411460385725867
 31
0.0
  0
LINE
  5
E1
330
70
100
AcDbEntity
  8
tree v4_Sketch1
100
AcDbLine
 10
-0.5102895457481571
 20
3.315685114033567
 30
0.0
 11
-0.3251635783913729
 21
3.577062076415136
 31
0.0
  0
LINE
  5
E2
330
70
100
AcDbEntity
  8
tree v4_Sketch1
100
AcDbLine
 10
-0.4331571095946504
 20
4.686229511470521
 30
0.0
 11
-0.2123769201222841
 21
4.652757341600365
 31
0.0
  0
POINT
  5
E4
330
70
100
AcDbEntity
  8
tree v4_Sketch2
100
AcDbPoint
 10
-9.747698935735492
 20
0.2133489905039041
 30
-1.041731476563503
  0
SPLINE
  5
E5
330
70
100
AcDbEntity
  8
tree v4_Sketch2
100
AcDbSpline
210
0.0900803853314312
220
0.0225575660477941
230
-0.9956790046960618
 70
     8
 71
     3
 72
     9
 73
     5
 74
     0
 42
0.000000001
 43
0.0000000001
 40
0.0
 40
0.0
 40
0.0
 40
0.0
 40
1.0
 40
2.0
 40
2.0
 40
2.0
 40
2.0
 10
0.1875724228889624
 20
11.94463610427777
 30
0.122903260919778
 10
0.4394179809913173
 20
11.95009396526104
 30
0.1458117091946736
 10
0.9431090971960287
 20
11.96100968722761
 30
0.1916286057444656
 10
0.5628005814937698
 20
11.63005276238358
 30
0.1497236141421123
 10
0.3726463236426412
 20
11.46457429996158
 30
0.1287711183409359
  0
SPLINE
  5
E6
330
70
100
AcDbEntity
  8
tree v4_Sketch2
100
AcDbSpline
210
0.0900803853314312
220
0.0225575660477942
230
-0.995679004696062
 70
     8
 71
     3
 72
     9
 73
     5
 74
     0
 42
0.000000001
 43
0.0000000001
 40
0.0
 40
0.0
 40
0.0
 40
0.0
 40
1.0
 40
2.0
 40
2.0
 40
2.0
 40
2.0
 10
-0.0246298976898771
 20
11.14046915958574
 30
0.085486266488243
 10
-0.2248793027051068
 20
10.98744923936571
 30
0.0639027034907354
 10
-0.6253781127355645
 20
10.68140939892566
 30
0.0207355774957201
 10
-0.5119487083446402
 20
11.17395178045595
 30
0.0421564587813179
 10
-0.455234006149178
 20
11.42022297122109
 30
0.0528668994241168
  0
SPLINE
  5
E7
330
70
100
AcDbEntity
  8
tree v4_Sketch2
100
AcDbSpline
210
-0.090080385331431
220
-0.0225575660477943
230
0.9956790046960618
 70
     8
 71
     3
 72
     9
 73
     5
 74
     0
 42
0.000000001
 43
0.0000000001
 40
0.0
 40
0.0
 40
0.0
 40
0.0
 40
1.0
 40
2.0
 40
2.0
 40
2.0
 40
2.0
 10
0.3726463236426412
 20
11.46457429996158
 30
0.1287711183409359
 10
0.4561306530263547
 20
11.2258138726666
 30
0.1309148277509446
 10
0.6230993117937853
 20
10.74829301807665
 30
0.1352022465709621
 10
0.191279838804677
 20
11.0097437790827
 30
0.1020582598491493
 10
-0.0246298976898771
 20
11.14046915958574
 30
0.085486266488243
  0
SPLINE
  5
E8
330
70
100
AcDbEntity
  8
tree v4_Sketch2
100
AcDbSpline
210
0.0900803853314311
220
0.0225575660477941
230
-0.995679004696062
 70
     8
 71
     3
 72
     9
 73
     5
 74
     0
 42
0.000000001
 43
0.0000000001
 40
0.0
 40
0.0
 40
0.0
 40
0.0
 40
1.0
 40
2.0
 40
2.0
 40
2.0
 40
2.0
 10
-0.3240857595398552
 20
11.91722547566991
 30
0.0759918737396708
 10
-0.2519209741006296
 20
12.15935904655843
 30
0.0880063639930664
 10
-0.1075914032221785
 20
12.64362618833546
 30
0.1120353444998574
 10
0.089184480851916
 20
12.17763279896366
 30
0.1192806221131379
 10
0.1875724228889624
 20
11.94463610427777
 30
0.122903260919778
  0
SPLINE
  5
E9
330
70
100
AcDbEntity
  8
tree v4_Sketch2
100
AcDbSpline
210
0.0900803853314314
220
0.022557566047794
230
-0.9956790046960618
 70
     8
 71
     3
 72
     9
 73
     5
 74
     0
 42
0.000000001
 43
0.0000000001
 40
0.0
 40
0.0
 40
0.0
 40
0.0
 40
0.9999999999999991
 40
1.999999999999999
 40
1.999999999999999
 40
1.999999999999999
 40
1.999999999999999
 10
-0.455234006149178
 20
11.42022297122109
 30
0.0528668994241168
 10
-0.6624792740592494
 20
11.56441188686429
 30
0.0373838144833236
 10
-1.076969809879392
 20
11.8527897181507
 30
0.006417644601737
 10
-0.5750471096530348
 20
11.89574688983017
 30
0.0528004640270261
 10
-0.3240857595398552
 20
11.91722547566991
 30
0.0759918737396708
  0
ENDSEC
  0
SECTION
  2
OBJECTS
  0
DICTIONARY
  5
C
330
0
100
AcDbDictionary
281
     1
  3
ACAD_COLOR
350
63
  3
ACAD_DETAILVIEWSTYLE
350
6A
  3
ACAD_GROUP
350
D
  3
ACAD_LAYOUT
350
62
  3
ACAD_MATERIAL
350
10
  3
ACAD_MLEADERSTYLE
350
66
  3
ACAD_MLINESTYLE
350
5F
  3
ACAD_PLOTSETTINGS
350
61
  3
ACAD_PLOTSTYLENAME
350
E
  3
ACAD_SCALELIST
350
42
  3
ACAD_SECTIONVIEWSTYLE
350
68
  3
ACAD_TABLESTYLE
350
64
  3
ACAD_VISUALSTYLE
350
29
  3
ACDB_RECOMPOSE_DATA
350
F2
  3
AcDbVariableDictionary
350
EA
  0
DICTIONARY
  5
63
102
{ACAD_REACTORS
330
C
102
}
330
C
100
AcDbDictionary
281
     1
  0
DICTIONARY
  5
6A
102
{ACAD_REACTORS
330
C
102
}
330
C
100
AcDbDictionary
281
     1
  3
Imperial24
350
6B
  0
DICTIONARY
  5
D
102
{ACAD_REACTORS
330
C
102
}
330
C
100
AcDbDictionary
281
     1
  0
DICTIONARY
  5
62
102
{ACAD_REACTORS
330
C
102
}
330
C
100
AcDbDictionary
281
     1
  3
Layout1
350
6F
  3
Layout2
350
77
  3
Model
350
73
  0
DICTIONARY
  5
10
102
{ACAD_REACTORS
330
C
102
}
330
C
100
AcDbDictionary
281
     1
  3
ByBlock
350
19
  3
ByLayer
350
11
  3
Global
350
21
  0
DICTIONARY
  5
66
102
{ACAD_REACTORS
330
C
102
}
330
C
100
AcDbDictionary
281
     1
  3
Standard
350
67
  0
DICTIONARY
  5
5F
102
{ACAD_REACTORS
330
C
102
}
330
C
100
AcDbDictionary
281
     1
  3
Standard
350
60
  0
DICTIONARY
  5
61
102
{ACAD_REACTORS
330
C
102
}
330
C
100
AcDbDictionary
281
     1
  0
ACDBDICTIONARYWDFLT
  5
E
102
{ACAD_REACTORS
330
C
102
}
330
C
100
AcDbDictionary
281
     1
  3
Normal
350
F
100
AcDbDictionaryWithDefault
340
F
  0
DICTIONARY
  5
42
102
{ACAD_REACTORS
330
C
102
}
330
C
100
AcDbDictionary
281
     1
  3
A0
350
43
  3
A1
350
44
  3
A2
350
45
  3
A3
350
46
  3
A4
350
47
  3
A5
350
48
  3
A6
350
49
  3
A7
350
4A
  3
A8
350
4B
  3
A9
350
4C
  3
B0
350
4D
  3
B1
350
4E
  3
B2
350
4F
  3
B3
350
50
  3
B4
350
51
  3
B5
350
52
  3
B6
350
53
  0
DICTIONARY
  5
68
102
{ACAD_REACTORS
330
C
102
}
330
C
100
AcDbDictionary
281
     1
  3
Imperial24
350
69
  0
DICTIONARY
  5
64
102
{ACAD_REACTORS
330
C
102
}
330
C
100
AcDbDictionary
281
     1
  3
Standard
350
65
  0
DICTIONARY
  5
29
102
{ACAD_REACTORS
330
C
102
}
330
C
100
AcDbDictionary
281
     1
  3
2dWireframe
350
2F
  3
Basic
350
2E
  3
Brighten
350
35
  3
ColorChange
350
39
  3
Conceptual
350
32
  3
Dim
350
34
  3
EdgeColorOff
350
41
  3
Facepattern
350
38
  3
Flat
350
2A
  3
FlatWithEdges
350
2B
  3
Gouraud
350
2C
  3
GouraudWithEdges
350
2D
  3
Hidden
350
31
  3
JitterOff
350
3F
  3
Linepattern
350
37
  3
OverhangOff
350
40
  3
Realistic
350
33
  3
Shaded
350
3E
  3
Shaded with edges
350
3D
  3
Shades of Gray
350
3A
  3
Sketchy
350
3B
  3
Thicken
350
36
  3
Wireframe
350
30
  3
X-Ray
350
3C
  0
XRECORD
  5
F2
102
{ACAD_REACTORS
330
C
102
}
330
C
100
AcDbXrecord
280
     1
 90
        1
330
65
  0
DICTIONARY
  5
EA
102
{ACAD_REACTORS
330
C
102
}
330
C
100
AcDbDictionary
281
     1
  3
CANNOSCALE
350
EF
  3
CMLEADERSTYLE
350
EC
  3
CTABLESTYLE
350
EB
  3
CVIEWDETAILSTYLE
350
ED
  3
CVIEWSECTIONSTYLE
350
EE
  0
ACDBDETAILVIEWSTYLE
  5
6B
102
{ACAD_XDICTIONARY
360
F5
102
}
102
{ACAD_REACTORS
330
6A
102
}
330
6A
100
AcDbModelDocViewStyle
 70
     0
  3
Imperial24
290
     0
100
AcDbDetailViewStyle
 70
     0
 71
     0
 90
        3
 71
     1
340
55
 62
   256
 40
0.24
340
0
 62
   256
 40
0.24
300

 40
0.36
280
     3
 71
     2
340
5D
 90
       25
 62
   256
 71
     3
340
55
 62
   256
 40
0.24
 90
        1
 40
0.75
 90
        1
300
%<\AcVar ViewType \f "%tc1">% %<\AcVar ViewDetailId>%\PSCALE %<\AcVar ViewScale \f "%sn">%
 71
     4
340
5D
 90
       25
 62
   256
340
5D
 90
       25
 62
   256
280
     0
  0
LAYOUT
  5
6F
102
{ACAD_REACTORS
330
62
102
}
330
62
100
AcDbPlotSettings
  1

  2

  4

  6

 40
0.0
 41
0.0
 42
0.0
 43
0.0
 44
0.0
 45
0.0
 46
0.0
 47
0.0
 48
0.0
 49
0.0
140
0.0
141
0.0
142
1.0
143
1.0
 70
   688
 72
     0
 73
     0
 74
     5
  7

 75
    16
147
1.0
 76
     0
 77
     2
 78
   300
148
0.0
149
0.0
100
AcDbLayout
  1
Layout1
 70
     1
 71
     1
 10
0.0
 20
0.0
 11
12.0
 21
9.0
 12
0.0
 22
0.0
 32
0.0
 14
0.0
 24
0.0
 34
0.0
 15
0.0
 25
0.0
 35
0.0
146
0.0
 13
0.0
 23
0.0
 33
0.0
 16
1.0
 26
0.0
 36
0.0
 17
0.0
 27
1.0
 37
0.0
 76
     0
330
6C
  0
LAYOUT
  5
77
102
{ACAD_REACTORS
330
62
102
}
330
62
100
AcDbPlotSettings
  1

  2

  4

  6

 40
0.0
 41
0.0
 42
0.0
 43
0.0
 44
0.0
 45
0.0
 46
0.0
 47
0.0
 48
0.0
 49
0.0
140
0.0
141
0.0
142
1.0
143
1.0
 70
   688
 72
     0
 73
     0
 74
     5
  7

 75
    16
147
1.0
 76
     0
 77
     2
 78
   300
148
0.0
149
0.0
100
AcDbLayout
  1
Layout2
 70
     1
 71
     2
 10
0.0
 20
0.0
 11
12.0
 21
9.0
 12
0.0
 22
0.0
 32
0.0
 14
0.0
 24
0.0
 34
0.0
 15
0.0
 25
0.0
 35
0.0
146
0.0
 13
0.0
 23
0.0
 33
0.0
 16
1.0
 26
0.0
 36
0.0
 17
0.0
 27
1.0
 37
0.0
 76
     0
330
74
  0
LAYOUT
  5
73
102
{ACAD_REACTORS
330
62
102
}
330
62
100
AcDbPlotSettings
  1

  2

  4

  6

 40
0.0
 41
0.0
 42
0.0
 43
0.0
 44
0.0
 45
0.0
 46
0.0
 47
0.0
 48
0.0
 49
0.0
140
0.0
141
0.0
142
1.0
143
1.0
 70
  1712
 72
     0
 73
     0
 74
     0
  7

 75
     0
147
1.0
 76
     0
 77
     2
 78
   300
148
0.0
149
0.0
100
AcDbLayout
  1
Model
 70
     1
 71
     0
 10
0.0
 20
0.0
 11
12.0
 21
9.0
 12
0.0
 22
0.0
 32
0.0
 14
0.0
 24
0.0
 34
0.0
 15
0.0
 25
0.0
 35
0.0
146
0.0
 13
0.0
 23
0.0
 33
0.0
 16
1.0
 26
0.0
 36
0.0
 17
0.0
 27
1.0
 37
0.0
 76
     0
330
70
  0
MATERIAL
  5
19
102
{ACAD_XDICTIONARY
360
1A
102
}
102
{ACAD_REACTORS
330
10
102
}
330
10
100
AcDbMaterial
  1
ByBlock
 72
     0
 43
0.0208333333333333
 43
0.0
 43
0.0
 43
0.0
 43
0.0
 43
0.0208333333333333
 43
0.0
 43
0.0
 43
0.0
 43
0.0
 43
1.0
 43
0.0
 43
0.0
 43
0.0
 43
0.0
 43
1.0
 77
     0
 47
0.0208333333333333
 47
0.0
 47
0.0
 47
0.0
 47
0.0
 47
0.0208333333333333
 47
0.0
 47
0.0
 47
0.0
 47
0.0
 47
1.0
 47
0.0
 47
0.0
 47
0.0
 47
0.0
 47
1.0
171
     0
 49
0.0208333333333333
 49
0.0
 49
0.0
 49
0.0
 49
0.0
 49
0.0208333333333333
 49
0.0
 49
0.0
 49
0.0
 49
0.0
 49
1.0
 49
0.0
 49
0.0
 49
0.0
 49
0.0
 49
1.0
175
     0
142
0.0208333333333333
142
0.0
142
0.0
142
0.0
142
0.0
142
0.0208333333333333
142
0.0
142
0.0
142
0.0
142
0.0
142
1.0
142
0.0
142
0.0
142
0.0
142
0.0
142
1.0
179
     0
144
0.0208333333333333
144
0.0
144
0.0
144
0.0
144
0.0
144
0.0208333333333333
144
0.0
144
0.0
144
0.0
144
0.0
144
1.0
144
0.0
144
0.0
144
0.0
144
0.0
144
1.0
147
0.0208333333333333
147
0.0
147
0.0
147
0.0
147
0.0
147
0.0208333333333333
147
0.0
147
0.0
147
0.0
147
0.0
147
1.0
147
0.0
147
0.0
147
0.0
147
0.0
147
1.0
  0
MATERIAL
  5
11
102
{ACAD_XDICTIONARY
360
12
102
}
102
{ACAD_REACTORS
330
10
102
}
330
10
100
AcDbMaterial
  1
ByLayer
 72
     0
 43
0.0208333333333333
 43
0.0
 43
0.0
 43
0.0
 43
0.0
 43
0.0208333333333333
 43
0.0
 43
0.0
 43
0.0
 43
0.0
 43
1.0
 43
0.0
 43
0.0
 43
0.0
 43
0.0
 43
1.0
 77
     0
 47
0.0208333333333333
 47
0.0
 47
0.0
 47
0.0
 47
0.0
 47
0.0208333333333333
 47
0.0
 47
0.0
 47
0.0
 47
0.0
 47
1.0
 47
0.0
 47
0.0
 47
0.0
 47
0.0
 47
1.0
171
     0
 49
0.0208333333333333
 49
0.0
 49
0.0
 49
0.0
 49
0.0
 49
0.0208333333333333
 49
0.0
 49
0.0
 49
0.0
 49
0.0
 49
1.0
 49
0.0
 49
0.0
 49
0.0
 49
0.0
 49
1.0
175
     0
142
0.0208333333333333
142
0.0
142
0.0
142
0.0
142
0.0
142
0.0208333333333333
142
0.0
142
0.0
142
0.0
142
0.0
142
1.0
142
0.0
142
0.0
142
0.0
142
0.0
142
1.0
179
     0
144
0.0208333333333333
144
0.0
144
0.0
144
0.0
144
0.0
144
0.0208333333333333
144
0.0
144
0.0
144
0.0
144
0.0
144
1.0
144
0.0
144
0.0
144
0.0
144
0.0
144
1.0
147
0.0208333333333333
147
0.0
147
0.0
147
0.0
147
0.0
147
0.0208333333333333
147
0.0
147
0.0
147
0.0
147
0.0
147
1.0
147
0.0
147
0.0
147
0.0
147
0.0
147
1.0
  0
MATERIAL
  5
21
102
{ACAD_XDICTIONARY
360
22
102
}
102
{ACAD_REACTORS
330
10
102
}
330
10
100
AcDbMaterial
  1
Global
 72
     0
 43
0.0208333333333333
 43
0.0
 43
0.0
 43
0.0
 43
0.0
 43
0.0208333333333333
 43
0.0
 43
0.0
 43
0.0
 43
0.0
 43
1.0
 43
0.0
 43
0.0
 43
0.0
 43
0.0
 43
1.0
 77
     0
 47
0.0208333333333333
 47
0.0
 47
0.0
 47
0.0
 47
0.0
 47
0.0208333333333333
 47
0.0
 47
0.0
 47
0.0
 47
0.0
 47
1.0
 47
0.0
 47
0.0
 47
0.0
 47
0.0
 47
1.0
171
     0
 49
0.0208333333333333
 49
0.0
 49
0.0
 49
0.0
 49
0.0
 49
0.0208333333333333
 49
0.0
 49
0.0
 49
0.0
 49
0.0
 49
1.0
 49
0.0
 49
0.0
 49
0.0
 49
0.0
 49
1.0
175
     0
142
0.0208333333333333
142
0.0
142
0.0
142
0.0
142
0.0
142
0.0208333333333333
142
0.0
142
0.0
142
0.0
142
0.0
142
1.0
142
0.0
142
0.0
142
0.0
142
0.0
142
1.0
179
     0
144
0.0208333333333333
144
0.0
144
0.0
144
0.0
144
0.0
144
0.0208333333333333
144
0.0
144
0.0
144
0.0
144
0.0
144
1.0
144
0.0
144
0.0
144
0.0
144
0.0
144
1.0
147
0.0208333333333333
147
0.0
147
0.0
147
0.0
147
0.0
147
0.0208333333333333
147
0.0
147
0.0
147
0.0
147
0.0
147
1.0
147
0.0
147
0.0
147
0.0
147
0.0
147
1.0
  0
MLEADERSTYLE
  5
67
102
{ACAD_REACTORS
330
66
102
}
330
66
100
AcDbMLeaderStyle
179
     2
170
     2
171
     1
172
     0
 90
        2
 40
0.0
 41
0.0
173
     1
 91
-1056964608
340
5B
 92
       -2
290
     1
 42
0.09
291
     1
 43
0.36
  3
Standard
 44
0.18
300

342
55
174
     1
178
     6
175
     1
176
     0
 93
-1056964608
 45
0.18
292
     0
297
     0
 46
0.18
 94
-1056964608
 47
1.0
 49
1.0
140
1.0
293
     1
141
0.0
294
     1
177
     0
142
1.0
295
     0
296
     0
143
0.125
271
     0
272
     9
273
     9
298
     1
  0
MLINESTYLE
  5
60
102
{ACAD_REACTORS
330
5F
102
}
330
5F
100
AcDbMlineStyle
  2
STANDARD
 70
     0
  3

 62
   256
 51
90.0
 52
90.0
 71
     2
 49
0.5
 62
   256
  6
BYLAYER
 49
-0.5
 62
   256
  6
BYLAYER
  0
ACDBPLACEHOLDER
  5
F
102
{ACAD_REACTORS
330
E
102
}
330
E
  0
SCALE
  5
43
102
{ACAD_REACTORS
330
42
102
}
330
42
100
AcDbScale
 70
     0
300
1:1
140
1.0
141
1.0
290
     1
  0
SCALE
  5
44
102
{ACAD_REACTORS
330
42
102
}
330
42
100
AcDbScale
 70
     0
300
1/128" = 1'-0"
140
0.0078125
141
12.0
290
     0
  0
SCALE
  5
45
102
{ACAD_REACTORS
330
42
102
}
330
42
100
AcDbScale
 70
     0
300
1/64" = 1'-0"
140
0.015625
141
12.0
290
     0
  0
SCALE
  5
46
102
{ACAD_REACTORS
330
42
102
}
330
42
100
AcDbScale
 70
     0
300
1/32" = 1'-0"
140
0.03125
141
12.0
290
     0
  0
SCALE
  5
47
102
{ACAD_REACTORS
330
42
102
}
330
42
100
AcDbScale
 70
     0
300
1/16" = 1'-0"
140
0.0625
141
12.0
290
     0
  0
SCALE
  5
48
102
{ACAD_REACTORS
330
42
102
}
330
42
100
AcDbScale
 70
     0
300
3/32" = 1'-0"
140
0.09375
141
12.0
290
     0
  0
SCALE
  5
49
102
{ACAD_REACTORS
330
42
102
}
330
42
100
AcDbScale
 70
     0
300
1/8" = 1'-0"
140
0.125
141
12.0
290
     0
  0
SCALE
  5
4A
102
{ACAD_REACTORS
330
42
102
}
330
42
100
AcDbScale
 70
     0
300
3/16" = 1'-0"
140
0.1875
141
12.0
290
     0
  0
SCALE
  5
4B
102
{ACAD_REACTORS
330
42
102
}
330
42
100
AcDbScale
 70
     0
300
1/4" = 1'-0"
140
0.25
141
12.0
290
     0
  0
SCALE
  5
4C
102
{ACAD_REACTORS
330
42
102
}
330
42
100
AcDbScale
 70
     0
300
3/8" = 1'-0"
140
0.375
141
12.0
290
     0
  0
SCALE
  5
4D
102
{ACAD_REACTORS
330
42
102
}
330
42
100
AcDbScale
 70
     0
300
1/2" = 1'-0"
140
0.5
141
12.0
290
     0
  0
SCALE
  5
4E
102
{ACAD_REACTORS
330
42
102
}
330
42
100
AcDbScale
 70
     0
300
3/4" = 1'-0"
140
0.75
141
12.0
290
     0
  0
SCALE
  5
4F
102
{ACAD_REACTORS
330
42
102
}
330
42
100
AcDbScale
 70
     0
300
1" = 1'-0"
140
1.0
141
12.0
290
     0
  0
SCALE
  5
50
102
{ACAD_REACTORS
330
42
102
}
330
42
100
AcDbScale
 70
     0
300
1-1/2" = 1'-0"
140
1.5
141
12.0
290
     0
  0
SCALE
  5
51
102
{ACAD_REACTORS
330
42
102
}
330
42
100
AcDbScale
 70
     0
300
3" = 1'-0"
140
3.0
141
12.0
290
     0
  0
SCALE
  5
52
102
{ACAD_REACTORS
330
42
102
}
330
42
100
AcDbScale
 70
     0
300
6" = 1'-0"
140
6.0
141
12.0
290
     0
  0
SCALE
  5
53
102
{ACAD_REACTORS
330
42
102
}
330
42
100
AcDbScale
 70
     0
300
1'-0" = 1'-0"
140
12.0
141
12.0
290
     0
  0
ACDBSECTIONVIEWSTYLE
  5
69
102
{ACAD_XDICTIONARY
360
F3
102
}
102
{ACAD_REACTORS
330
68
102
}
330
68
100
AcDbModelDocViewStyle
 70
     0
  3
Imperial24
290
     0
100
AcDbSectionViewStyle
 70
     0
 71
     0
 90
       78
 71
     1
340
55
 62
   256
 40
0.24
340
0
340
0
 62
   256
 40
0.24
300
I, O, Q, S, X, Z
 40
0.48
 90
        3
 40
0.18
 90
        1
 71
     2
340
5D
 90
       25
 62
   256
340
5D
 90
       50
 62
   256
 40
0.24
 40
0.0
 40
0.24
 71
     3
340
55
 62
   256
 40
0.24
 90
        1
 40
0.75
 90
        1
300
%<\AcVar ViewType \f "%tc1">% %<\AcVar ViewSectionStartId>%-%<\AcVar ViewSectionEndId>%\PSCALE %<\AcVar ViewScale \f "%sn">%
 71
     4
 62
   256
 62
   257
300
ANSI31
 40
1.0
 90
        0
290
     0
290
     0
 90
        6
 40
0.0
 40
1.570796326794896
 40
0.2617993877991494
 40
1.308996938995747
 40
-0.2617993877991494
 40
1.832595714594046
  0
TABLESTYLE
  5
65
102
{ACAD_XDICTIONARY
360
F0
102
}
102
{ACAD_REACTORS
330
64
102
}
330
64
100
AcDbTableStyle
280
     0
  3
Standard
 70
     0
 71
     0
 40
0.06
 41
0.06
280
     0
281
     0
  7
Standard
140
0.18
170
     2
 62
     0
 63
     7
283
     0
 90
      512
 91
        0
  1

274
    -2
284
     1
 64
     0
275
    -2
285
     1
 65
     0
276
    -2
286
     1
 66
     0
277
    -2
287
     1
 67
     0
278
    -2
288
     1
 68
     0
279
    -2
289
     1
 69
     0
  7
Standard
140
0.25
170
     5
 62
     0
 63
     7
283
     0
 90
      512
 91
        0
  1

274
    -2
284
     1
 64
     0
275
    -2
285
     1
 65
     0
276
    -2
286
     1
 66
     0
277
    -2
287
     1
 67
     0
278
    -2
288
     1
 68
     0
279
    -2
289
     1
 69
     0
  7
Standard
140
0.18
170
     5
 62
     0
 63
     7
283
     0
 90
      512
 91
        0
  1

274
    -2
284
     1
 64
     0
275
    -2
285
     1
 65
     0
276
    -2
286
     1
 66
     0
277
    -2
287
     1
 67
     0
278
    -2
288
     1
 68
     0
279
    -2
289
     1
 69
     0
  0
VISUALSTYLE
  5
2F
102
{ACAD_REACTORS
330
29
102
}
330
29
100
AcDbVisualStyle
  2
2dWireframe
 70
     4
177
     3
291
     0
 70
    58
 90
        0
176
     1
 90
        2
176
     1
 90
        0
176
     1
 90
        0
176
     1
 40
0.6
176
     1
 40
30.0
176
     1
 62
     7
420
 16777215
176
     1
 90
        1
176
     1
 90
        4
176
     1
 62
     7
176
     1
 62
   257
176
     1
 90
        1
176
     1
 90
        1
176
     1
 40
1.0
176
     1
 90
        0
176
     1
 62
   257
176
     1
 40
1.0
176
     1
 90
        1
176
     1
 90
        6
176
     1
 90
        2
176
     1
 62
     7
176
     1
 90
        5
176
     1
 90
        0
176
     1
 90
        0
176
     1
290
     0
176
     1
 90
        1
176
     1
 40
0.0
176
     1
 90
        0
176
     1
290
     1
176
     1
290
     1
176
     1
290
     0
176
     1
290
     0
176
     1
290
     0
176
     1
290
     0
176
     1
290
     0
176
     1
290
     0
176
     1
290
     0
176
     1
 90
       50
176
     1
 40
0.0
176
     1
 40
1.0
176
     1
 90
        0
176
     1
 62
    18
420
        0
176
     1
 90
       50
176
     1
 90
        3
176
     1
 62
     5
420
      255
176
     1
290
     0
176
     1
 90
       50
176
     1
 90
       50
176
     1
 90
       50
176
     1
290
     0
176
     1
 90
       50
176
     1
 62
   256
176
     0
 40
1.0
176
     0
 90
        2
176
     1
  1
strokes_ogs.tif
176
     1
290
     0
176
     1
 40
1.0
176
     1
 40
1.0
176
     1
1001
ACAD
1000
AcDbSavedByObjectVersion
1070
     0
  0
VISUALSTYLE
  5
2E
102
{ACAD_REACTORS
330
29
102
}
330
29
100
AcDbVisualStyle
  2
Basic
 70
     7
177
     3
291
     1
 70
    58
 90
        1
176
     1
 90
        0
176
     1
 90
        1
176
     1
 90
        0
176
     1
 40
0.6
176
     1
 40
30.0
176
     1
 62
     7
420
 16777215
176
     1
 90
        0
176
     1
 90
        4
176
     1
 62
     7
176
     1
 62
   257
176
     1
 90
        1
176
     1
 90
        1
176
     1
 40
1.0
176
     1
 90
        8
176
     1
 62
     7
176
     1
 40
1.0
176
     1
 90
        1
176
     1
 90
        6
176
     1
 90
        2
176
     1
 62
     7
176
     1
 90
        5
176
     1
 90
        0
176
     1
 90
        0
176
     1
290
     0
176
     1
 90
        1
176
     1
 40
0.0
176
     1
 90
        0
176
     1
290
     0
176
     1
290
     1
176
     1
290
     1
176
     1
290
     0
176
     1
290
     0
176
     1
290
     0
176
     1
290
     0
176
     1
290
     0
176
     1
290
     0
176
     1
 90
       50
176
     1
 40
0.0
176
     1
 40
1.0
176
     1
 90
        0
176
     1
 62
    18
420
        0
176
     1
 90
       50
176
     1
 90
        3
176
     1
 62
     5
420
      255
176
     1
290
     0
176
     1
 90
       50
176
     1
 90
       50
176
     1
 90
       50
176
     1
290
     0
176
     1
 90
       50
176
     1
 62
   256
176
     0
 40
1.0
176
     0
 90
        2
176
     1
  1
strokes_ogs.tif
176
     1
290
     0
176
     1
 40
1.0
176
     1
 40
1.0
176
     1
1001
ACAD
1000
AcDbSavedByObjectVersion
1070
     0
  0
VISUALSTYLE
  5
35
102
{ACAD_REACTORS
330
29
102
}
330
29
100
AcDbVisualStyle
  2
Brighten
 70
    12
177
     3
291
     1
 70
    58
 90
        2
176
     1
 90
        2
176
     1
 90
        0
176
     1
 90
        0
176
     1
 40
0.6
176
     1
 40
30.0
176
     1
 62
     7
420
 16777215
176
     1
 90
        1
176
     1
 90
        4
176
     1
 62
     7
176
     1
 62
   257
176
     1
 90
        1
176
     1
 90
        1
176
     1
 40
1.0
176
     1
 90
        8
176
     1
 62
     7
176
     1
 40
1.0
176
     1
 90
        1
176
     1
 90
        6
176
     1
 90
        2
176
     1
 62
     7
176
     1
 90
        5
176
     1
 90
        0
176
     1
 90
        0
176
     1
290
     0
176
     1
 90
        1
176
     1
 40
50.0
176
     1
 90
        0
176
     1
290
     0
176
     1
290
     1
176
     1
290
     1
176
     1
290
     0
176
     1
290
     0
176
     1
290
     0
176
     1
290
     0
176
     1
290
     0
176
     1
290
     0
176
     1
 90
       50
176
     1
 40
0.0
176
     1
 40
1.0
176
     1
 90
        0
176
     1
 62
    18
420
        0
176
     1
 90
       50
176
     1
 90
        3
176
     1
 62
     5
420
      255
176
     1
290
     0
176
     1
 90
       50
176
     1
 90
       50
176
     1
 90
       50
176
     1
290
     0
176
     1
 90
       50
176
     1
 62
   256
176
     0
 40
1.0
176
     0
 90
        2
176
     1
  1
strokes_ogs.tif
176
     1
290
     0
176
     1
 40
1.0
176
     1
 40
1.0
176
     1
1001
ACAD
1000
AcDbSavedByObjectVersion
1070
     0
  0
VISUALSTYLE
  5
39
102
{ACAD_REACTORS
330
29
102
}
330
29
100
AcDbVisualStyle
  2
ColorChange
 70
    16
177
     3
291
     1
 70
    58
 90
        2
176
     1
 90
        2
176
     1
 90
        3
176
     1
 90
        0
176
     1
 40
0.6
176
     1
 40
30.0
176
     1
 62
     8
420
  8421504
176
     1
 90
        1
176
     1
 90
        4
176
     1
 62
     7
176
     1
 62
   257
176
     1
 90
        1
176
     1
 90
        1
176
     1
 40
1.0
176
     1
 90
        8
176
     1
 62
     8
420
  8421504
176
     1
 40
1.0
176
     1
 90
        1
176
     1
 90
        6
176
     1
 90
        2
176
     1
 62
     7
176
     1
 90
        5
176
     1
 90
        0
176
     1
 90
        0
176
     1
290
     0
176
     1
 90
        1
176
     1
 40
0.0
176
     1
 90
        0
176
     1
290
     0
176
     1
290
     1
176
     1
290
     1
176
     1
290
     0
176
     1
290
     0
176
     1
290
     0
176
     1
290
     0
176
     1
290
     0
176
     1
290
     0
176
     1
 90
       50
176
     1
 40
0.0
176
     1
 40
1.0
176
     1
 90
        0
176
     1
 62
    18
420
        0
176
     1
 90
       50
176
     1
 90
        3
176
     1
 62
     5
420
      255
176
     1
290
     0
176
     1
 90
       50
176
     1
 90
       50
176
     1
 90
       50
176
     1
290
     0
176
     1
 90
       50
176
     1
 62
   256
176
     0
 40
1.0
176
     0
 90
        2
176
     1
  1
strokes_ogs.tif
176
     1
290
     0
176
     1
 40
1.0
176
     1
 40
1.0
176
     1
1001
ACAD
1000
AcDbSavedByObjectVersion
1070
     0
  0
VISUALSTYLE
  5
32
102
{ACAD_REACTORS
330
29
102
}
330
29
100
AcDbVisualStyle
  2
Conceptual
 70
     9
177
     3
291
     0
 70
    58
 90
        3
176
     1
 90
        2
176
     1
 90
        0
176
     1
 90
        0
176
     1
 40
0.6
176
     1
 40
30.0
176
     1
 62
     7
420
 16777215
176
     1
 90
        2
176
     1
 90
        2
176
     1
 62
     7
176
     1
 62
   257
176
     1
 90
        1
176
     1
 90
        1
176
     1
 40
179.0
176
     1
 90
        8
176
     1
 62
     7
176
     1
 40
1.0
176
     1
 90
        1
176
     1
 90
        6
176
     1
 90
        2
176
     1
 62
     7
176
     1
 90
        3
176
     1
 90
        0
176
     1
 90
        0
176
     1
290
     0
176
     1
 90
        1
176
     1
 40
0.0
176
     1
 90
        0
176
     1
290
     0
176
     1
290
     1
176
     1
290
     1
176
     1
290
     0
176
     1
290
     0
176
     1
290
     0
176
     1
290
     0
176
     1
290
     0
176
     1
290
     0
176
     1
 90
       50
176
     1
 40
0.0
176
     1
 40
1.0
176
     1
 90
        0
176
     1
 62
    18
420
        0
176
     1
 90
       50
176
     1
 90
        3
176
     1
 62
     5
420
      255
176
     1
290
     0
176
     1
 90
       50
176
     1
 90
       50
176
     1
 90
       50
176
     1
290
     0
176
     1
 90
       50
176
     1
 62
   256
176
     0
 40
1.0
176
     0
 90
        2
176
     1
  1
strokes_ogs.tif
176
     1
290
     0
176
     1
 40
1.0
176
     1
 40
1.0
176
     1
1001
ACAD
1000
AcDbSavedByObjectVersion
1070
     0
  0
VISUALSTYLE
  5
34
102
{ACAD_REACTORS
330
29
102
}
330
29
100
AcDbVisualStyle
  2
Dim
 70
    11
177
     3
291
     1
 70
    58
 90
        2
176
     1
 90
        2
176
     1
 90
        0
176
     1
 90
        0
176
     1
 40
0.6
176
     1
 40
30.0
176
     1
 62
     7
420
 16777215
176
     1
 90
        1
176
     1
 90
        4
176
     1
 62
     7
176
     1
 62
   257
176
     1
 90
        1
176
     1
 90
        1
176
     1
 40
1.0
176
     1
 90
        8
176
     1
 62
     7
176
     1
 40
1.0
176
     1
 90
        1
176
     1
 90
        6
176
     1
 90
        2
176
     1
 62
     7
176
     1
 90
        5
176
     1
 90
        0
176
     1
 90
        0
176
     1
290
     0
176
     1
 90
        1
176
     1
 40
-50.0
176
     1
 90
        0
176
     1
290
     0
176
     1
290
     1
176
     1
290
     1
176
     1
290
     0
176
     1
290
     0
176
     1
290
     0
176
     1
290
     0
176
     1
290
     0
176
     1
290
     0
176
     1
 90
       50
176
     1
 40
0.0
176
     1
 40
1.0
176
     1
 90
        0
176
     1
 62
    18
420
        0
176
     1
 90
       50
176
     1
 90
        3
176
     1
 62
     5
420
      255
176
     1
290
     0
176
     1
 90
       50
176
     1
 90
       50
176
     1
 90
       50
176
     1
290
     0
176
     1
 90
       50
176
     1
 62
   256
176
     0
 40
1.0
176
     0
 90
        2
176
     1
  1
strokes_ogs.tif
176
     1
290
     0
176
     1
 40
1.0
176
     1
 40
1.0
176
     1
1001
ACAD
1000
AcDbSavedByObjectVersion
1070
     0
  0
VISUALSTYLE
  5
41
102
{ACAD_REACTORS
330
29
102
}
330
29
100
AcDbVisualStyle
  2
EdgeColorOff
 70
    22
177
     3
291
     1
 70
    58
 90
        2
176
     0
 90
        2
176
     0
 90
        0
176
     0
 90
        0
176
     0
 40
0.6
176
     0
 40
30.0
176
     0
 62
     7
420
 16777215
176
     0
 90
        1
176
     0
 90
        4
176
     0
 62
     7
176
     0
 62
   257
176
     0
 90
        1
176
     0
 90
        1
176
     0
 40
1.0
176
     0
 90
        8
176
     2
 62
     7
176
     0
 40
1.0
176
     0
 90
        1
176
     0
 90
        6
176
     0
 90
        2
176
     0
 62
     7
176
     0
 90
        5
176
     0
 90
        0
176
     0
 90
        0
176
     0
290
     0
176
     0
 90
        1
176
     0
 40
0.0
176
     0
 90
        0
176
     0
290
     0
176
     0
290
     1
176
     0
290
     1
176
     0
290
     0
176
     0
290
     0
176
     0
290
     0
176
     0
290
     0
176
     0
290
     0
176
     0
290
     0
176
     0
 90
       50
176
     0
 40
0.0
176
     0
 40
1.0
176
     0
 90
        0
176
     0
 62
    18
420
        0
176
     0
 90
       50
176
     0
 90
        3
176
     0
 62
     5
420
      255
176
     0
290
     0
176
     0
 90
       50
176
     0
 90
       50
176
     0
 90
       50
176
     0
290
     0
176
     0
 90
       50
176
     0
 62
   256
176
     0
 40
1.0
176
     0
 90
        2
176
     0
  1
strokes_ogs.tif
176
     0
290
     0
176
     0
 40
1.0
176
     0
 40
1.0
176
     0
1001
ACAD
1000
AcDbSavedByObjectVersion
1070
     0
  0
VISUALSTYLE
  5
38
102
{ACAD_REACTORS
330
29
102
}
330
29
100
AcDbVisualStyle
  2
Facepattern
 70
    15
177
     3
291
     1
 70
    58
 90
        2
176
     1
 90
        2
176
     1
 90
        0
176
     1
 90
        0
176
     1
 40
0.6
176
     1
 40
30.0
176
     1
 62
     7
420
 16777215
176
     1
 90
        1
176
     1
 90
        4
176
     1
 62
     7
176
     1
 62
   257
176
     1
 90
        1
176
     1
 90
        1
176
     1
 40
1.0
176
     1
 90
        8
176
     1
 62
     7
176
     1
 40
1.0
176
     1
 90
        1
176
     1
 90
        6
176
     1
 90
        2
176
     1
 62
     7
176
     1
 90
        5
176
     1
 90
        0
176
     1
 90
        0
176
     1
290
     0
176
     1
 90
        1
176
     1
 40
0.0
176
     1
 90
        0
176
     1
290
     0
176
     1
290
     1
176
     1
290
     1
176
     1
290
     0
176
     1
290
     0
176
     1
290
     0
176
     1
290
     0
176
     1
290
     0
176
     1
290
     0
176
     1
 90
       50
176
     1
 40
0.0
176
     1
 40
1.0
176
     1
 90
        0
176
     1
 62
    18
420
        0
176
     1
 90
       50
176
     1
 90
        3
176
     1
 62
     5
420
      255
176
     1
290
     0
176
     1
 90
       50
176
     1
 90
       50
176
     1
 90
       50
176
     1
290
     0
176
     1
 90
       50
176
     1
 62
   256
176
     0
 40
1.0
176
     0
 90
        2
176
     1
  1
strokes_ogs.tif
176
     1
290
     0
176
     1
 40
1.0
176
     1
 40
1.0
176
     1
1001
ACAD
1000
AcDbSavedByObjectVersion
1070
     0
  0
VISUALSTYLE
  5
2A
102
{ACAD_REACTORS
330
29
102
}
330
29
100
AcDbVisualStyle
  2
Flat
 70
     0
177
     3
291
     1
 70
    58
 90
        2
176
     1
 90
        1
176
     1
 90
        1
176
     1
 90
        2
176
     1
 40
0.6
176
     1
 40
30.0
176
     1
 62
     7
420
 16777215
176
     1
 90
        0
176
     1
 90
        0
176
     1
 62
     7
176
     1
 62
   257
176
     1
 90
        1
176
     1
 90
        1
176
     1
 40
1.0
176
     1
 90
        8
176
     1
 62
     7
176
     1
 40
1.0
176
     1
 90
        1
176
     1
 90
        6
176
     1
 90
        2
176
     1
 62
     7
176
     1
 90
        5
176
     1
 90
        0
176
     1
 90
        0
176
     1
290
     0
176
     1
 90
       13
176
     1
 40
0.0
176
     1
 90
        0
176
     1
290
     0
176
     1
290
     1
176
     1
290
     1
176
     1
290
     0
176
     1
290
     0
176
     1
290
     0
176
     1
290
     0
176
     1
290
     0
176
     1
290
     0
176
     1
 90
       50
176
     1
 40
0.0
176
     1
 40
1.0
176
     1
 90
        0
176
     1
 62
    18
420
        0
176
     1
 90
       50
176
     1
 90
        3
176
     1
 62
     5
420
      255
176
     1
290
     0
176
     1
 90
       50
176
     1
 90
       50
176
     1
 90
       50
176
     1
290
     0
176
     1
 90
       50
176
     1
 62
   256
176
     0
 40
1.0
176
     0
 90
        2
176
     1
  1
strokes_ogs.tif
176
     1
290
     0
176
     1
 40
1.0
176
     1
 40
1.0
176
     1
1001
ACAD
1000
AcDbSavedByObjectVersion
1070
     0
  0
VISUALSTYLE
  5
2B
102
{ACAD_REACTORS
330
29
102
}
330
29
100
AcDbVisualStyle
  2
FlatWithEdges
 70
     1
177
     3
291
     1
 70
    58
 90
        2
176
     1
 90
        1
176
     1
 90
        1
176
     1
 90
        2
176
     1
 40
0.6
176
     1
 40
30.0
176
     1
 62
     7
420
 16777215
176
     1
 90
        1
176
     1
 90
        0
176
     1
 62
     7
176
     1
 62
   257
176
     1
 90
        1
176
     1
 90
        1
176
     1
 40
1.0
176
     1
 90
        0
176
     1
 62
   257
176
     1
 40
1.0
176
     1
 90
        1
176
     1
 90
        6
176
     1
 90
        2
176
     1
 62
     7
176
     1
 90
        5
176
     1
 90
        0
176
     1
 90
        0
176
     1
290
     0
176
     1
 90
       13
176
     1
 40
0.0
176
     1
 90
        0
176
     1
290
     0
176
     1
290
     1
176
     1
290
     1
176
     1
290
     0
176
     1
290
     0
176
     1
290
     0
176
     1
290
     0
176
     1
290
     0
176
     1
290
     0
176
     1
 90
       50
176
     1
 40
0.0
176
     1
 40
1.0
176
     1
 90
        0
176
     1
 62
    18
420
        0
176
     1
 90
       50
176
     1
 90
        3
176
     1
 62
     5
420
      255
176
     1
290
     0
176
     1
 90
       50
176
     1
 90
       50
176
     1
 90
       50
176
     1
290
     0
176
     1
 90
       50
176
     1
 62
   256
176
     0
 40
1.0
176
     0
 90
        2
176
     1
  1
strokes_ogs.tif
176
     1
290
     0
176
     1
 40
1.0
176
     1
 40
1.0
176
     1
1001
ACAD
1000
AcDbSavedByObjectVersion
1070
     0
  0
VISUALSTYLE
  5
2C
102
{ACAD_REACTORS
330
29
102
}
330
29
100
AcDbVisualStyle
  2
Gouraud
 70
     2
177
     3
291
     1
 70
    58
 90
        2
176
     1
 90
        2
176
     1
 90
        1
176
     1
 90
        2
176
     1
 40
0.6
176
     1
 40
30.0
176
     1
 62
     7
420
 16777215
176
     1
 90
        0
176
     1
 90
        0
176
     1
 62
     7
176
     1
 62
   257
176
     1
 90
        1
176
     1
 90
        1
176
     1
 40
1.0
176
     1
 90
        0
176
     1
 62
     7
176
     1
 40
1.0
176
     1
 90
        1
176
     1
 90
        6
176
     1
 90
        2
176
     1
 62
     7
176
     1
 90
        5
176
     1
 90
        0
176
     1
 90
        0
176
     1
290
     0
176
     1
 90
       13
176
     1
 40
0.0
176
     1
 90
        0
176
     1
290
     0
176
     1
290
     1
176
     1
290
     1
176
     1
290
     0
176
     1
290
     0
176
     1
290
     0
176
     1
290
     0
176
     1
290
     0
176
     1
290
     0
176
     1
 90
       50
176
     1
 40
0.0
176
     1
 40
1.0
176
     1
 90
        0
176
     1
 62
    18
420
        0
176
     1
 90
       50
176
     1
 90
        3
176
     1
 62
     5
420
      255
176
     1
290
     0
176
     1
 90
       50
176
     1
 90
       50
176
     1
 90
       50
176
     1
290
     0
176
     1
 90
       50
176
     1
 62
   256
176
     0
 40
1.0
176
     0
 90
        2
176
     1
  1
strokes_ogs.tif
176
     1
290
     0
176
     1
 40
1.0
176
     1
 40
1.0
176
     1
1001
ACAD
1000
AcDbSavedByObjectVersion
1070
     0
  0
VISUALSTYLE
  5
2D
102
{ACAD_REACTORS
330
29
102
}
330
29
100
AcDbVisualStyle
  2
GouraudWithEdges
 70
     3
177
     3
291
     1
 70
    58
 90
        2
176
     1
 90
        2
176
     1
 90
        1
176
     1
 90
        2
176
     1
 40
0.6
176
     1
 40
30.0
176
     1
 62
     7
420
 16777215
176
     1
 90
        1
176
     1
 90
        0
176
     1
 62
     7
176
     1
 62
   257
176
     1
 90
        1
176
     1
 90
        1
176
     1
 40
1.0
176
     1
 90
        0
176
     1
 62
   257
176
     1
 40
1.0
176
     1
 90
        1
176
     1
 90
        6
176
     1
 90
        2
176
     1
 62
     7
176
     1
 90
        5
176
     1
 90
        0
176
     1
 90
        0
176
     1
290
     0
176
     1
 90
       13
176
     1
 40
0.0
176
     1
 90
        0
176
     1
290
     0
176
     1
290
     1
176
     1
290
     1
176
     1
290
     0
176
     1
290
     0
176
     1
290
     0
176
     1
290
     0
176
     1
290
     0
176
     1
290
     0
176
     1
 90
       50
176
     1
 40
0.0
176
     1
 40
1.0
176
     1
 90
        0
176
     1
 62
    18
420
        0
176
     1
 90
       50
176
     1
 90
        3
176
     1
 62
     5
420
      255
176
     1
290
     0
176
     1
 90
       50
176
     1
 90
       50
176
     1
 90
       50
176
     1
290
     0
176
     1
 90
       50
176
     1
 62
   256
176
     0
 40
1.0
176
     0
 90
        2
176
     1
  1
strokes_ogs.tif
176
     1
290
     0
176
     1
 40
1.0
176
     1
 40
1.0
176
     1
1001
ACAD
1000
AcDbSavedByObjectVersion
1070
     0
  0
VISUALSTYLE
  5
31
102
{ACAD_REACTORS
330
29
102
}
330
29
100
AcDbVisualStyle
  2
Hidden
 70
     6
177
     3
291
     0
 70
    58
 90
        1
176
     1
 90
        2
176
     1
 90
        2
176
     1
 90
        0
176
     1
 40
0.6
176
     1
 40
30.0
176
     1
 62
     7
420
 16777215
176
     1
 90
        2
176
     1
 90
        2
176
     1
 62
     7
176
     1
 62
   257
176
     1
 90
        2
176
     1
 90
        1
176
     1
 40
40.0
176
     1
 90
        0
176
     1
 62
   257
176
     1
 40
1.0
176
     1
 90
        1
176
     1
 90
        6
176
     1
 90
        2
176
     1
 62
     7
176
     1
 90
        3
176
     1
 90
        0
176
     1
 90
        0
176
     1
290
     0
176
     1
 90
        1
176
     1
 40
0.0
176
     1
 90
        0
176
     1
290
     0
176
     1
290
     1
176
     1
290
     1
176
     1
290
     0
176
     1
290
     0
176
     1
290
     0
176
     1
290
     0
176
     1
290
     0
176
     1
290
     0
176
     1
 90
       50
176
     1
 40
0.0
176
     1
 40
1.0
176
     1
 90
        0
176
     1
 62
    18
420
        0
176
     1
 90
       50
176
     1
 90
        3
176
     1
 62
     5
420
      255
176
     1
290
     0
176
     1
 90
       50
176
     1
 90
       50
176
     1
 90
       50
176
     1
290
     0
176
     1
 90
       50
176
     1
 62
   256
176
     0
 40
1.0
176
     0
 90
        2
176
     1
  1
strokes_ogs.tif
176
     1
290
     0
176
     1
 40
1.0
176
     1
 40
1.0
176
     1
1001
ACAD
1000
AcDbSavedByObjectVersion
1070
     0
  0
VISUALSTYLE
  5
3F
102
{ACAD_REACTORS
330
29
102
}
330
29
100
AcDbVisualStyle
  2
JitterOff
 70
    20
177
     3
291
     1
 70
    58
 90
        2
176
     0
 90
        2
176
     0
 90
        0
176
     0
 90
        0
176
     0
 40
0.6
176
     0
 40
30.0
176
     0
 62
     7
420
 16777215
176
     0
 90
        1
176
     0
 90
        4
176
     0
 62
     7
176
     0
 62
   257
176
     0
 90
        1
176
     0
 90
        1
176
     0
 40
1.0
176
     0
 90
       10
176
     2
 62
     7
176
     0
 40
1.0
176
     0
 90
        1
176
     0
 90
        6
176
     0
 90
        2
176
     0
 62
     7
176
     0
 90
        5
176
     0
 90
        0
176
     0
 90
        0
176
     0
290
     0
176
     0
 90
        1
176
     0
 40
0.0
176
     0
 90
        0
176
     0
290
     0
176
     0
290
     1
176
     0
290
     1
176
     0
290
     0
176
     0
290
     0
176
     0
290
     0
176
     0
290
     0
176
     0
290
     0
176
     0
290
     0
176
     0
 90
       50
176
     0
 40
0.0
176
     0
 40
1.0
176
     0
 90
        0
176
     0
 62
    18
420
        0
176
     0
 90
       50
176
     0
 90
        3
176
     0
 62
     5
420
      255
176
     0
290
     0
176
     0
 90
       50
176
     0
 90
       50
176
     0
 90
       50
176
     0
290
     0
176
     0
 90
       50
176
     0
 62
   256
176
     0
 40
1.0
176
     0
 90
        2
176
     0
  1
strokes_ogs.tif
176
     0
290
     0
176
     0
 40
1.0
176
     0
 40
1.0
176
     0
1001
ACAD
1000
AcDbSavedByObjectVersion
1070
     0
  0
VISUALSTYLE
  5
37
102
{ACAD_REACTORS
330
29
102
}
330
29
100
AcDbVisualStyle
  2
Linepattern
 70
    14
177
     3
291
     1
 70
    58
 90
        2
176
     1
 90
        2
176
     1
 90
        0
176
     1
 90
        0
176
     1
 40
0.6
176
     1
 40
30.0
176
     1
 62
     7
420
 16777215
176
     1
 90
        1
176
     1
 90
        4
176
     1
 62
     7
176
     1
 62
   257
176
     1
 90
        7
176
     1
 90
        7
176
     1
 40
1.0
176
     1
 90
        8
176
     1
 62
     7
176
     1
 40
1.0
176
     1
 90
        1
176
     1
 90
        6
176
     1
 90
        2
176
     1
 62
     7
176
     1
 90
        5
176
     1
 90
        0
176
     1
 90
        0
176
     1
290
     0
176
     1
 90
        1
176
     1
 40
0.0
176
     1
 90
        0
176
     1
290
     0
176
     1
290
     1
176
     1
290
     1
176
     1
290
     0
176
     1
290
     0
176
     1
290
     0
176
     1
290
     0
176
     1
290
     0
176
     1
290
     0
176
     1
 90
       50
176
     1
 40
0.0
176
     1
 40
1.0
176
     1
 90
        0
176
     1
 62
    18
420
        0
176
     1
 90
       50
176
     1
 90
        3
176
     1
 62
     5
420
      255
176
     1
290
     0
176
     1
 90
       50
176
     1
 90
       50
176
     1
 90
       50
176
     1
290
     0
176
     1
 90
       50
176
     1
 62
   256
176
     0
 40
1.0
176
     0
 90
        2
176
     1
  1
strokes_ogs.tif
176
     1
290
     0
176
     1
 40
1.0
176
     1
 40
1.0
176
     1
1001
ACAD
1000
AcDbSavedByObjectVersion
1070
     0
  0
VISUALSTYLE
  5
40
102
{ACAD_REACTORS
330
29
102
}
330
29
100
AcDbVisualStyle
  2
OverhangOff
 70
    21
177
     3
291
     1
 70
    58
 90
        2
176
     0
 90
        2
176
     0
 90
        0
176
     0
 90
        0
176
     0
 40
0.6
176
     0
 40
30.0
176
     0
 62
     7
420
 16777215
176
     0
 90
        1
176
     0
 90
        4
176
     0
 62
     7
176
     0
 62
   257
176
     0
 90
        1
176
     0
 90
        1
176
     0
 40
1.0
176
     0
 90
        9
176
     2
 62
     7
176
     0
 40
1.0
176
     0
 90
        1
176
     0
 90
        6
176
     0
 90
        2
176
     0
 62
     7
176
     0
 90
        5
176
     0
 90
        0
176
     0
 90
        0
176
     0
290
     0
176
     0
 90
        1
176
     0
 40
0.0
176
     0
 90
        0
176
     0
290
     0
176
     0
290
     1
176
     0
290
     1
176
     0
290
     0
176
     0
290
     0
176
     0
290
     0
176
     0
290
     0
176
     0
290
     0
176
     0
290
     0
176
     0
 90
       50
176
     0
 40
0.0
176
     0
 40
1.0
176
     0
 90
        0
176
     0
 62
    18
420
        0
176
     0
 90
       50
176
     0
 90
        3
176
     0
 62
     5
420
      255
176
     0
290
     0
176
     0
 90
       50
176
     0
 90
       50
176
     0
 90
       50
176
     0
290
     0
176
     0
 90
       50
176
     0
 62
   256
176
     0
 40
1.0
176
     0
 90
        2
176
     0
  1
strokes_ogs.tif
176
     0
290
     0
176
     0
 40
1.0
176
     0
 40
1.0
176
     0
1001
ACAD
1000
AcDbSavedByObjectVersion
1070
     0
  0
VISUALSTYLE
  5
33
102
{ACAD_REACTORS
330
29
102
}
330
29
100
AcDbVisualStyle
  2
Realistic
 70
     8
177
     3
291
     0
 70
    58
 90
        2
176
     1
 90
        3
176
     1
 90
        0
176
     1
 90
        2
176
     1
 40
0.6
176
     1
 40
30.0
176
     1
 62
     7
420
 16777215
176
     1
 90
        0
176
     1
 90
        0
176
     1
 62
     7
176
     1
 62
   257
176
     1
 90
        1
176
     1
 90
        1
176
     1
 40
1.0
176
     1
 90
        8
176
     1
 62
   257
176
     1
 40
1.0
176
     1
 90
        1
176
     1
 90
        6
176
     1
 90
        2
176
     1
 62
     7
176
     1
 90
        3
176
     1
 90
        0
176
     1
 90
        0
176
     1
290
     0
176
     1
 90
       13
176
     1
 40
0.0
176
     1
 90
        0
176
     1
290
     0
176
     1
290
     1
176
     1
290
     1
176
     1
290
     0
176
     1
290
     0
176
     1
290
     0
176
     1
290
     0
176
     1
290
     0
176
     1
290
     0
176
     1
 90
       50
176
     1
 40
0.0
176
     1
 40
1.0
176
     1
 90
        0
176
     1
 62
    18
420
        0
176
     1
 90
       50
176
     1
 90
        3
176
     1
 62
     5
420
      255
176
     1
290
     0
176
     1
 90
       50
176
     1
 90
       50
176
     1
 90
       50
176
     1
290
     0
176
     1
 90
       50
176
     1
 62
   256
176
     0
 40
1.0
176
     0
 90
        2
176
     1
  1
strokes_ogs.tif
176
     1
290
     0
176
     1
 40
1.0
176
     1
 40
1.0
176
     1
1001
ACAD
1000
AcDbSavedByObjectVersion
1070
     0
  0
VISUALSTYLE
  5
3E
102
{ACAD_REACTORS
330
29
102
}
330
29
100
AcDbVisualStyle
  2
Shaded
 70
    27
177
     3
291
     0
 70
    58
 90
        2
176
     1
 90
        2
176
     1
 90
        1
176
     1
 90
        2
176
     1
 40
0.6
176
     1
 40
30.0
176
     1
 62
     7
420
 16777215
176
     1
 90
        0
176
     1
 90
        4
176
     1
 62
     7
176
     1
 62
   257
176
     1
 90
        1
176
     1
 90
        1
176
     1
 40
1.0
176
     1
 90
        8
176
     1
 62
   257
176
     1
 40
1.0
176
     1
 90
        1
176
     1
 90
        6
176
     1
 90
        2
176
     1
 62
     8
420
  7895160
176
     1
 90
        3
176
     1
 90
        0
176
     1
 90
        0
176
     1
290
     0
176
     1
 90
        5
176
     1
 40
0.0
176
     1
 90
        0
176
     1
290
     0
176
     1
290
     1
176
     1
290
     1
176
     1
290
     0
176
     1
290
     0
176
     1
290
     0
176
     1
290
     0
176
     1
290
     0
176
     1
290
     0
176
     1
 90
       50
176
     1
 40
0.0
176
     1
 40
1.0
176
     1
 90
        0
176
     1
 62
    18
420
        0
176
     1
 90
       50
176
     1
 90
        3
176
     1
 62
     5
420
      255
176
     1
290
     0
176
     1
 90
       50
176
     1
 90
       50
176
     1
 90
       50
176
     1
290
     0
176
     1
 90
       50
176
     1
 62
   256
176
     0
 40
1.0
176
     0
 90
        2
176
     1
  1
strokes_ogs.tif
176
     1
290
     0
176
     1
 40
1.0
176
     1
 40
1.0
176
     1
1001
ACAD
1000
AcDbSavedByObjectVersion
1070
     0
  0
VISUALSTYLE
  5
3D
102
{ACAD_REACTORS
330
29
102
}
330
29
100
AcDbVisualStyle
  2
Shaded with edges
 70
    26
177
     3
291
     0
 70
    58
 90
        2
176
     1
 90
        2
176
     1
 90
        1
176
     1
 90
        2
176
     1
 40
0.6
176
     1
 40
30.0
176
     1
 62
     7
420
 16777215
176
     1
 90
        1
176
     1
 90
        2
176
     1
 62
     7
176
     1
 62
   257
176
     1
 90
        2
176
     1
 90
        1
176
     1
 40
1.0
176
     1
 90
        8
176
     1
 62
   257
176
     1
 40
1.0
176
     1
 90
        1
176
     1
 90
        6
176
     1
 90
        2
176
     1
 62
     7
176
     1
 90
        3
176
     1
 90
        0
176
     1
 90
        0
176
     1
290
     0
176
     1
 90
        5
176
     1
 40
0.0
176
     1
 90
        0
176
     1
290
     0
176
     1
290
     1
176
     1
290
     1
176
     1
290
     0
176
     1
290
     0
176
     1
290
     0
176
     1
290
     0
176
     1
290
     0
176
     1
290
     0
176
     1
 90
       50
176
     1
 40
0.0
176
     1
 40
1.0
176
     1
 90
        0
176
     1
 62
    18
420
        0
176
     1
 90
       50
176
     1
 90
        3
176
     1
 62
     5
420
      255
176
     1
290
     0
176
     1
 90
       50
176
     1
 90
       50
176
     1
 90
       50
176
     1
290
     0
176
     1
 90
       50
176
     1
 62
   256
176
     0
 40
1.0
176
     0
 90
        2
176
     1
  1
strokes_ogs.tif
176
     1
290
     0
176
     1
 40
1.0
176
     1
 40
1.0
176
     1
1001
ACAD
1000
AcDbSavedByObjectVersion
1070
     0
  0
VISUALSTYLE
  5
3A
102
{ACAD_REACTORS
330
29
102
}
330
29
100
AcDbVisualStyle
  2
Shades of Gray
 70
    23
177
     3
291
     0
 70
    58
 90
        2
176
     1
 90
        2
176
     1
 90
        3
176
     1
 90
        0
176
     1
 40
0.6
176
     1
 40
30.0
176
     1
 62
     7
420
 16777215
176
     1
 90
        2
176
     1
 90
        2
176
     1
 62
     7
176
     1
 62
     7
176
     1
 90
        1
176
     1
 90
        1
176
     1
 40
40.0
176
     1
 90
        8
176
     1
 62
     7
176
     1
 40
1.0
176
     1
 90
        1
176
     1
 90
        6
176
     1
 90
        2
176
     1
 62
     7
176
     1
 90
        3
176
     1
 90
        0
176
     1
 90
        0
176
     1
290
     0
176
     1
 90
        1
176
     1
 40
0.0
176
     1
 90
        0
176
     1
290
     0
176
     1
290
     1
176
     1
290
     1
176
     1
290
     0
176
     1
290
     0
176
     1
290
     0
176
     1
290
     0
176
     1
290
     0
176
     1
290
     0
176
     1
 90
       50
176
     1
 40
0.0
176
     1
 40
1.0
176
     1
 90
        0
176
     1
 62
    18
420
        0
176
     1
 90
       50
176
     1
 90
        3
176
     1
 62
     5
420
      255
176
     1
290
     0
176
     1
 90
       50
176
     1
 90
       50
176
     1
 90
       50
176
     1
290
     0
176
     1
 90
       50
176
     1
 62
   256
176
     0
 40
1.0
176
     0
 90
        2
176
     1
  1
strokes_ogs.tif
176
     1
290
     0
176
     1
 40
1.0
176
     1
 40
1.0
176
     1
1001
ACAD
1000
AcDbSavedByObjectVersion
1070
     0
  0
VISUALSTYLE
  5
3B
102
{ACAD_REACTORS
330
29
102
}
330
29
100
AcDbVisualStyle
  2
Sketchy
 70
    24
177
     3
291
     0
 70
    58
 90
        1
176
     1
 90
        2
176
     1
 90
        2
176
     1
 90
        0
176
     1
 40
0.6
176
     1
 40
30.0
176
     1
 62
     7
420
 16777215
176
     1
 90
        2
176
     1
 90
        2
176
     1
 62
     7
176
     1
 62
     7
176
     1
 90
        1
176
     1
 90
        1
176
     1
 40
40.0
176
     1
 90
       11
176
     1
 62
     7
176
     1
 40
1.0
176
     1
 90
        1
176
     1
 90
        6
176
     1
 90
        2
176
     1
 62
     7
176
     1
 90
        6
176
     1
 90
        0
176
     1
 90
        0
176
     1
290
     0
176
     1
 90
        1
176
     1
 40
0.0
176
     1
 90
        0
176
     1
290
     0
176
     1
290
     1
176
     1
290
     1
176
     1
290
     0
176
     1
290
     0
176
     1
290
     0
176
     1
290
     0
176
     1
290
     0
176
     1
290
     0
176
     1
 90
       50
176
     1
 40
0.0
176
     1
 40
1.0
176
     1
 90
        0
176
     1
 62
    18
420
        0
176
     1
 90
       50
176
     1
 90
        3
176
     1
 62
     5
420
      255
176
     1
290
     0
176
     1
 90
       50
176
     1
 90
       50
176
     1
 90
       50
176
     1
290
     0
176
     1
 90
       50
176
     1
 62
   256
176
     0
 40
1.0
176
     0
 90
        2
176
     1
  1
strokes_ogs.tif
176
     1
290
     0
176
     1
 40
1.0
176
     1
 40
1.0
176
     1
1001
ACAD
1000
AcDbSavedByObjectVersion
1070
     0
  0
VISUALSTYLE
  5
36
102
{ACAD_REACTORS
330
29
102
}
330
29
100
AcDbVisualStyle
  2
Thicken
 70
    13
177
     3
291
     1
 70
    58
 90
        2
176
     1
 90
        2
176
     1
 90
        0
176
     1
 90
        0
176
     1
 40
0.6
176
     1
 40
30.0
176
     1
 62
     7
420
 16777215
176
     1
 90
        1
176
     1
 90
        4
176
     1
 62
     7
176
     1
 62
   257
176
     1
 90
        1
176
     1
 90
        1
176
     1
 40
1.0
176
     1
 90
       12
176
     1
 62
     7
176
     1
 40
1.0
176
     1
 90
        1
176
     1
 90
        6
176
     1
 90
        2
176
     1
 62
     7
176
     1
 90
        5
176
     1
 90
        0
176
     1
 90
        0
176
     1
290
     0
176
     1
 90
        1
176
     1
 40
0.0
176
     1
 90
        0
176
     1
290
     0
176
     1
290
     1
176
     1
290
     1
176
     1
290
     0
176
     1
290
     0
176
     1
290
     0
176
     1
290
     0
176
     1
290
     0
176
     1
290
     0
176
     1
 90
       50
176
     1
 40
0.0
176
     1
 40
1.0
176
     1
 90
        0
176
     1
 62
    18
420
        0
176
     1
 90
       50
176
     1
 90
        3
176
     1
 62
     5
420
      255
176
     1
290
     0
176
     1
 90
       50
176
     1
 90
       50
176
     1
 90
       50
176
     1
290
     0
176
     1
 90
       50
176
     1
 62
   256
176
     0
 40
1.0
176
     0
 90
        2
176
     1
  1
strokes_ogs.tif
176
     1
290
     0
176
     1
 40
1.0
176
     1
 40
1.0
176
     1
1001
ACAD
1000
AcDbSavedByObjectVersion
1070
     0
  0
VISUALSTYLE
  5
30
102
{ACAD_REACTORS
330
29
102
}
330
29
100
AcDbVisualStyle
  2
Wireframe
 70
     5
177
     3
291
     0
 70
    58
 90
        0
176
     1
 90
        2
176
     1
 90
        0
176
     1
 90
        0
176
     1
 40
0.6
176
     1
 40
30.0
176
     1
 62
     7
420
 16777215
176
     1
 90
        1
176
     1
 90
        4
176
     1
 62
     7
176
     1
 62
   257
176
     1
 90
        1
176
     1
 90
        1
176
     1
 40
1.0
176
     1
 90
        0
176
     1
 62
   257
176
     1
 40
1.0
176
     1
 90
        1
176
     1
 90
        6
176
     1
 90
        2
176
     1
 62
     7
176
     1
 90
        3
176
     1
 90
        0
176
     1
 90
        0
176
     1
290
     0
176
     1
 90
        1
176
     1
 40
0.0
176
     1
 90
        0
176
     1
290
     0
176
     1
290
     1
176
     1
290
     1
176
     1
290
     0
176
     1
290
     0
176
     1
290
     0
176
     1
290
     0
176
     1
290
     0
176
     1
290
     0
176
     1
 90
       50
176
     1
 40
0.0
176
     1
 40
1.0
176
     1
 90
        0
176
     1
 62
    18
420
        0
176
     1
 90
       50
176
     1
 90
        3
176
     1
 62
     5
420
      255
176
     1
290
     0
176
     1
 90
       50
176
     1
 90
       50
176
     1
 90
       50
176
     1
290
     0
176
     1
 90
       50
176
     1
 62
   256
176
     0
 40
1.0
176
     0
 90
        2
176
     1
  1
strokes_ogs.tif
176
     1
290
     0
176
     1
 40
1.0
176
     1
 40
1.0
176
     1
1001
ACAD
1000
AcDbSavedByObjectVersion
1070
     0
  0
VISUALSTYLE
  5
3C
102
{ACAD_REACTORS
330
29
102
}
330
29
100
AcDbVisualStyle
  2
X-Ray
 70
    25
177
     3
291
     0
 70
    58
 90
        2
176
     1
 90
        2
176
     1
 90
        1
176
     1
 90
        1
176
     1
 40
0.5
176
     1
 40
30.0
176
     1
 62
     7
420
 16777215
176
     1
 90
        1
176
     1
 90
        0
176
     1
 62
     7
176
     1
 62
   257
176
     1
 90
        1
176
     1
 90
        1
176
     1
 40
1.0
176
     1
 90
        8
176
     1
 62
     7
176
     1
 40
1.0
176
     1
 90
        1
176
     1
 90
        6
176
     1
 90
        2
176
     1
 62
     7
176
     1
 90
        3
176
     1
 90
        0
176
     1
 90
        0
176
     1
290
     0
176
     1
 90
       13
176
     1
 40
0.0
176
     1
 90
        0
176
     1
290
     0
176
     1
290
     1
176
     1
290
     1
176
     1
290
     0
176
     1
290
     0
176
     1
290
     0
176
     1
290
     0
176
     1
290
     0
176
     1
290
     0
176
     1
 90
       50
176
     1
 40
0.0
176
     1
 40
1.0
176
     1
 90
        0
176
     1
 62
    18
420
        0
176
     1
 90
       50
176
     1
 90
        3
176
     1
 62
     5
420
      255
176
     1
290
     0
176
     1
 90
       50
176
     1
 90
       50
176
     1
 90
       50
176
     1
290
     0
176
     1
 90
       50
176
     1
 62
   256
176
     0
 40
1.0
176
     0
 90
        2
176
     1
  1
strokes_ogs.tif
176
     1
290
     0
176
     1
 40
1.0
176
     1
 40
1.0
176
     1
1001
ACAD
1000
AcDbSavedByObjectVersion
1070
     0
  0
DICTIONARYVAR
  5
EF
102
{ACAD_REACTORS
330
EA
102
}
330
EA
100
DictionaryVariables
280
     0
  1
1:1
  0
DICTIONARYVAR
  5
EC
102
{ACAD_REACTORS
330
EA
102
}
330
EA
100
DictionaryVariables
280
     0
  1
STANDARD
  0
DICTIONARYVAR
  5
EB
102
{ACAD_REACTORS
330
EA
102
}
330
EA
100
DictionaryVariables
280
     0
  1
STANDARD
  0
DICTIONARYVAR
  5
ED
102
{ACAD_REACTORS
330
EA
102
}
330
EA
100
DictionaryVariables
280
     0
  1
Imperial24
  0
DICTIONARYVAR
  5
EE
102
{ACAD_REACTORS
330
EA
102
}
330
EA
100
DictionaryVariables
280
     0
  1
Imperial24
  0
DICTIONARY
  5
F5
330
6B
100
AcDbDictionary
280
     1
281
     1
  3
ACAD_XREC_ROUNDTRIP
360
F6
  0
DICTIONARY
  5
1A
330
19
100
AcDbDictionary
280
     1
281
     1
  3
BUMPTILE
360
1C
  3
DIFFUSETILE
360
1B
  3
OPACITYTILE
360
1F
  3
REFLECTIONTILE
360
1E
  3
REFRACTIONTILE
360
20
  3
SPECULARTILE
360
1D
  0
DICTIONARY
  5
12
330
11
100
AcDbDictionary
280
     1
281
     1
  3
BUMPTILE
360
14
  3
DIFFUSETILE
360
13
  3
OPACITYTILE
360
17
  3
REFLECTIONTILE
360
16
  3
REFRACTIONTILE
360
18
  3
SPECULARTILE
360
15
  0
DICTIONARY
  5
22
330
21
100
AcDbDictionary
280
     1
281
     1
  3
BUMPTILE
360
24
  3
DIFFUSETILE
360
23
  3
OPACITYTILE
360
27
  3
REFLECTIONTILE
360
26
  3
REFRACTIONTILE
360
28
  3
SPECULARTILE
360
25
  0
DICTIONARY
  5
F3
330
69
100
AcDbDictionary
280
     1
281
     1
  3
ACAD_XREC_ROUNDTRIP
360
F4
  0
DICTIONARY
  5
F0
330
65
100
AcDbDictionary
280
     1
281
     1
  3
ACAD_ROUNDTRIP_2008_TABLESTYLE_CELLSTYLEMAP
360
F1
  0
XRECORD
  5
F6
102
{ACAD_REACTORS
330
F5
102
}
330
F5
100
AcDbXrecord
280
     1
102
DISPLAYNAME
  1
Imperial24
102
FLAGS
 90
        0
  0
XRECORD
  5
1C
102
{ACAD_REACTORS
330
1A
102
}
330
1A
100
AcDbXrecord
280
     1
270
     1
271
     1
  0
XRECORD
  5
1B
102
{ACAD_REACTORS
330
1A
102
}
330
1A
100
AcDbXrecord
280
     1
270
     1
271
     1
  0
XRECORD
  5
1F
102
{ACAD_REACTORS
330
1A
102
}
330
1A
100
AcDbXrecord
280
     1
270
     1
271
     1
  0
XRECORD
  5
1E
102
{ACAD_REACTORS
330
1A
102
}
330
1A
100
AcDbXrecord
280
     1
270
     1
271
     1
  0
XRECORD
  5
20
102
{ACAD_REACTORS
330
1A
102
}
330
1A
100
AcDbXrecord
280
     1
270
     1
271
     1
  0
XRECORD
  5
1D
102
{ACAD_REACTORS
330
1A
102
}
330
1A
100
AcDbXrecord
280
     1
270
     1
271
     1
  0
XRECORD
  5
14
102
{ACAD_REACTORS
330
12
102
}
330
12
100
AcDbXrecord
280
     1
270
     1
271
     1
  0
XRECORD
  5
13
102
{ACAD_REACTORS
330
12
102
}
330
12
100
AcDbXrecord
280
     1
270
     1
271
     1
  0
XRECORD
  5
17
102
{ACAD_REACTORS
330
12
102
}
330
12
100
AcDbXrecord
280
     1
270
     1
271
     1
  0
XRECORD
  5
16
102
{ACAD_REACTORS
330
12
102
}
330
12
100
AcDbXrecord
280
     1
270
     1
271
     1
  0
XRECORD
  5
18
102
{ACAD_REACTORS
330
12
102
}
330
12
100
AcDbXrecord
280
     1
270
     1
271
     1
  0
XRECORD
  5
15
102
{ACAD_REACTORS
330
12
102
}
330
12
100
AcDbXrecord
280
     1
270
     1
271
     1
  0
XRECORD
  5
24
102
{ACAD_REACTORS
330
22
102
}
330
22
100
AcDbXrecord
280
     1
270
     1
271
     1
  0
XRECORD
  5
23
102
{ACAD_REACTORS
330
22
102
}
330
22
100
AcDbXrecord
280
     1
270
     1
271
     1
  0
XRECORD
  5
27
102
{ACAD_REACTORS
330
22
102
}
330
22
100
AcDbXrecord
280
     1
270
     1
271
     1
  0
XRECORD
  5
26
102
{ACAD_REACTORS
330
22
102
}
330
22
100
AcDbXrecord
280
     1
270
     1
271
     1
  0
XRECORD
  5
28
102
{ACAD_REACTORS
330
22
102
}
330
22
100
AcDbXrecord
280
     1
270
     1
271
     1
  0
XRECORD
  5
25
102
{ACAD_REACTORS
330
22
102
}
330
22
100
AcDbXrecord
280
     1
270
     1
271
     1
  0
XRECORD
  5
F4
102
{ACAD_REACTORS
330
F3
102
}
330
F3
100
AcDbXrecord
280
     1
102
DISPLAYNAME
  1
Imperial24
102
FLAGS
 90
        0
  0
CELLSTYLEMAP
  5
F1
102
{ACAD_REACTORS
330
F0
102
}
330
F0
100
AcDbCellStyleMap
 90
        3
300
CELLSTYLE
  1
TABLEFORMAT_BEGIN
 90
        5
170
     1
 91
        0
 92
    32768
 62
   257
 93
        1
300
CONTENTFORMAT
  1
CONTENTFORMAT_BEGIN
 90
        0
 91
        0
 92
      512
 93
        0
300

 40
0.0
140
1.0
 94
        5
 62
     0
340
55
144
0.25
309
CONTENTFORMAT_END
171
     0
 94
        0
309
TABLEFORMAT_END
  1
CELLSTYLE_BEGIN
 90
        1
 91
        1
300
_TITLE
309
CELLSTYLE_END
300
CELLSTYLE
  1
TABLEFORMAT_BEGIN
 90
        5
170
     1
 91
        0
 92
        0
 62
   257
 93
        1
300
CONTENTFORMAT
  1
CONTENTFORMAT_BEGIN
 90
        0
 91
        0
 92
      512
 93
        0
300

 40
0.0
140
1.0
 94
        5
 62
     0
340
55
144
0.18
309
CONTENTFORMAT_END
171
     0
 94
        0
309
TABLEFORMAT_END
  1
CELLSTYLE_BEGIN
 90
        2
 91
        1
300
_HEADER
309
CELLSTYLE_END
300
CELLSTYLE
  1
TABLEFORMAT_BEGIN
 90
        5
170
     1
 91
        0
 92
        0
 62
   257
 93
        1
300
CONTENTFORMAT
  1
CONTENTFORMAT_BEGIN
 90
        0
 91
        0
 92
      512
 93
        0
300

 40
0.0
140
1.0
 94
        2
 62
     0
340
55
144
0.18
309
CONTENTFORMAT_END
171
     0
 94
        0
309
TABLEFORMAT_END
  1
CELLSTYLE_BEGIN
 90
        3
 91
        2
300
_DATA
309
CELLSTYLE_END
  0
ENDSEC
  0
EOF
